G75*
%MOIN*%
%OFA0B0*%
%FSLAX25Y25*%
%IPPOS*%
%LPD*%
%AMOC8*
5,1,8,0,0,1.08239X$1,22.5*
%
%ADD10C,0.00000*%
%ADD11C,0.00600*%
%ADD12C,0.00400*%
%ADD13C,0.00500*%
%ADD14C,0.01000*%
%ADD15C,0.00300*%
%ADD16C,0.01200*%
%ADD17C,0.00700*%
%ADD18C,0.00800*%
%ADD19C,0.00100*%
D10*
X0001839Y0001800D02*
X0374800Y0001800D01*
X0374800Y0209501D01*
X0001839Y0209501D01*
X0001839Y0001800D01*
X0003501Y0010800D02*
X0003503Y0010958D01*
X0003509Y0011116D01*
X0003519Y0011274D01*
X0003533Y0011432D01*
X0003551Y0011589D01*
X0003572Y0011746D01*
X0003598Y0011902D01*
X0003628Y0012058D01*
X0003661Y0012213D01*
X0003699Y0012366D01*
X0003740Y0012519D01*
X0003785Y0012671D01*
X0003834Y0012822D01*
X0003887Y0012971D01*
X0003943Y0013119D01*
X0004003Y0013265D01*
X0004067Y0013410D01*
X0004135Y0013553D01*
X0004206Y0013695D01*
X0004280Y0013835D01*
X0004358Y0013972D01*
X0004440Y0014108D01*
X0004524Y0014242D01*
X0004613Y0014373D01*
X0004704Y0014502D01*
X0004799Y0014629D01*
X0004896Y0014754D01*
X0004997Y0014876D01*
X0005101Y0014995D01*
X0005208Y0015112D01*
X0005318Y0015226D01*
X0005431Y0015337D01*
X0005546Y0015446D01*
X0005664Y0015551D01*
X0005785Y0015653D01*
X0005908Y0015753D01*
X0006034Y0015849D01*
X0006162Y0015942D01*
X0006292Y0016032D01*
X0006425Y0016118D01*
X0006560Y0016202D01*
X0006696Y0016281D01*
X0006835Y0016358D01*
X0006976Y0016430D01*
X0007118Y0016500D01*
X0007262Y0016565D01*
X0007408Y0016627D01*
X0007555Y0016685D01*
X0007704Y0016740D01*
X0007854Y0016791D01*
X0008005Y0016838D01*
X0008157Y0016881D01*
X0008310Y0016920D01*
X0008465Y0016956D01*
X0008620Y0016987D01*
X0008776Y0017015D01*
X0008932Y0017039D01*
X0009089Y0017059D01*
X0009247Y0017075D01*
X0009404Y0017087D01*
X0009563Y0017095D01*
X0009721Y0017099D01*
X0009879Y0017099D01*
X0010037Y0017095D01*
X0010196Y0017087D01*
X0010353Y0017075D01*
X0010511Y0017059D01*
X0010668Y0017039D01*
X0010824Y0017015D01*
X0010980Y0016987D01*
X0011135Y0016956D01*
X0011290Y0016920D01*
X0011443Y0016881D01*
X0011595Y0016838D01*
X0011746Y0016791D01*
X0011896Y0016740D01*
X0012045Y0016685D01*
X0012192Y0016627D01*
X0012338Y0016565D01*
X0012482Y0016500D01*
X0012624Y0016430D01*
X0012765Y0016358D01*
X0012904Y0016281D01*
X0013040Y0016202D01*
X0013175Y0016118D01*
X0013308Y0016032D01*
X0013438Y0015942D01*
X0013566Y0015849D01*
X0013692Y0015753D01*
X0013815Y0015653D01*
X0013936Y0015551D01*
X0014054Y0015446D01*
X0014169Y0015337D01*
X0014282Y0015226D01*
X0014392Y0015112D01*
X0014499Y0014995D01*
X0014603Y0014876D01*
X0014704Y0014754D01*
X0014801Y0014629D01*
X0014896Y0014502D01*
X0014987Y0014373D01*
X0015076Y0014242D01*
X0015160Y0014108D01*
X0015242Y0013972D01*
X0015320Y0013835D01*
X0015394Y0013695D01*
X0015465Y0013553D01*
X0015533Y0013410D01*
X0015597Y0013265D01*
X0015657Y0013119D01*
X0015713Y0012971D01*
X0015766Y0012822D01*
X0015815Y0012671D01*
X0015860Y0012519D01*
X0015901Y0012366D01*
X0015939Y0012213D01*
X0015972Y0012058D01*
X0016002Y0011902D01*
X0016028Y0011746D01*
X0016049Y0011589D01*
X0016067Y0011432D01*
X0016081Y0011274D01*
X0016091Y0011116D01*
X0016097Y0010958D01*
X0016099Y0010800D01*
X0016097Y0010642D01*
X0016091Y0010484D01*
X0016081Y0010326D01*
X0016067Y0010168D01*
X0016049Y0010011D01*
X0016028Y0009854D01*
X0016002Y0009698D01*
X0015972Y0009542D01*
X0015939Y0009387D01*
X0015901Y0009234D01*
X0015860Y0009081D01*
X0015815Y0008929D01*
X0015766Y0008778D01*
X0015713Y0008629D01*
X0015657Y0008481D01*
X0015597Y0008335D01*
X0015533Y0008190D01*
X0015465Y0008047D01*
X0015394Y0007905D01*
X0015320Y0007765D01*
X0015242Y0007628D01*
X0015160Y0007492D01*
X0015076Y0007358D01*
X0014987Y0007227D01*
X0014896Y0007098D01*
X0014801Y0006971D01*
X0014704Y0006846D01*
X0014603Y0006724D01*
X0014499Y0006605D01*
X0014392Y0006488D01*
X0014282Y0006374D01*
X0014169Y0006263D01*
X0014054Y0006154D01*
X0013936Y0006049D01*
X0013815Y0005947D01*
X0013692Y0005847D01*
X0013566Y0005751D01*
X0013438Y0005658D01*
X0013308Y0005568D01*
X0013175Y0005482D01*
X0013040Y0005398D01*
X0012904Y0005319D01*
X0012765Y0005242D01*
X0012624Y0005170D01*
X0012482Y0005100D01*
X0012338Y0005035D01*
X0012192Y0004973D01*
X0012045Y0004915D01*
X0011896Y0004860D01*
X0011746Y0004809D01*
X0011595Y0004762D01*
X0011443Y0004719D01*
X0011290Y0004680D01*
X0011135Y0004644D01*
X0010980Y0004613D01*
X0010824Y0004585D01*
X0010668Y0004561D01*
X0010511Y0004541D01*
X0010353Y0004525D01*
X0010196Y0004513D01*
X0010037Y0004505D01*
X0009879Y0004501D01*
X0009721Y0004501D01*
X0009563Y0004505D01*
X0009404Y0004513D01*
X0009247Y0004525D01*
X0009089Y0004541D01*
X0008932Y0004561D01*
X0008776Y0004585D01*
X0008620Y0004613D01*
X0008465Y0004644D01*
X0008310Y0004680D01*
X0008157Y0004719D01*
X0008005Y0004762D01*
X0007854Y0004809D01*
X0007704Y0004860D01*
X0007555Y0004915D01*
X0007408Y0004973D01*
X0007262Y0005035D01*
X0007118Y0005100D01*
X0006976Y0005170D01*
X0006835Y0005242D01*
X0006696Y0005319D01*
X0006560Y0005398D01*
X0006425Y0005482D01*
X0006292Y0005568D01*
X0006162Y0005658D01*
X0006034Y0005751D01*
X0005908Y0005847D01*
X0005785Y0005947D01*
X0005664Y0006049D01*
X0005546Y0006154D01*
X0005431Y0006263D01*
X0005318Y0006374D01*
X0005208Y0006488D01*
X0005101Y0006605D01*
X0004997Y0006724D01*
X0004896Y0006846D01*
X0004799Y0006971D01*
X0004704Y0007098D01*
X0004613Y0007227D01*
X0004524Y0007358D01*
X0004440Y0007492D01*
X0004358Y0007628D01*
X0004280Y0007765D01*
X0004206Y0007905D01*
X0004135Y0008047D01*
X0004067Y0008190D01*
X0004003Y0008335D01*
X0003943Y0008481D01*
X0003887Y0008629D01*
X0003834Y0008778D01*
X0003785Y0008929D01*
X0003740Y0009081D01*
X0003699Y0009234D01*
X0003661Y0009387D01*
X0003628Y0009542D01*
X0003598Y0009698D01*
X0003572Y0009854D01*
X0003551Y0010011D01*
X0003533Y0010168D01*
X0003519Y0010326D01*
X0003509Y0010484D01*
X0003503Y0010642D01*
X0003501Y0010800D01*
X0148501Y0015800D02*
X0148503Y0015958D01*
X0148509Y0016116D01*
X0148519Y0016274D01*
X0148533Y0016432D01*
X0148551Y0016589D01*
X0148572Y0016746D01*
X0148598Y0016902D01*
X0148628Y0017058D01*
X0148661Y0017213D01*
X0148699Y0017366D01*
X0148740Y0017519D01*
X0148785Y0017671D01*
X0148834Y0017822D01*
X0148887Y0017971D01*
X0148943Y0018119D01*
X0149003Y0018265D01*
X0149067Y0018410D01*
X0149135Y0018553D01*
X0149206Y0018695D01*
X0149280Y0018835D01*
X0149358Y0018972D01*
X0149440Y0019108D01*
X0149524Y0019242D01*
X0149613Y0019373D01*
X0149704Y0019502D01*
X0149799Y0019629D01*
X0149896Y0019754D01*
X0149997Y0019876D01*
X0150101Y0019995D01*
X0150208Y0020112D01*
X0150318Y0020226D01*
X0150431Y0020337D01*
X0150546Y0020446D01*
X0150664Y0020551D01*
X0150785Y0020653D01*
X0150908Y0020753D01*
X0151034Y0020849D01*
X0151162Y0020942D01*
X0151292Y0021032D01*
X0151425Y0021118D01*
X0151560Y0021202D01*
X0151696Y0021281D01*
X0151835Y0021358D01*
X0151976Y0021430D01*
X0152118Y0021500D01*
X0152262Y0021565D01*
X0152408Y0021627D01*
X0152555Y0021685D01*
X0152704Y0021740D01*
X0152854Y0021791D01*
X0153005Y0021838D01*
X0153157Y0021881D01*
X0153310Y0021920D01*
X0153465Y0021956D01*
X0153620Y0021987D01*
X0153776Y0022015D01*
X0153932Y0022039D01*
X0154089Y0022059D01*
X0154247Y0022075D01*
X0154404Y0022087D01*
X0154563Y0022095D01*
X0154721Y0022099D01*
X0154879Y0022099D01*
X0155037Y0022095D01*
X0155196Y0022087D01*
X0155353Y0022075D01*
X0155511Y0022059D01*
X0155668Y0022039D01*
X0155824Y0022015D01*
X0155980Y0021987D01*
X0156135Y0021956D01*
X0156290Y0021920D01*
X0156443Y0021881D01*
X0156595Y0021838D01*
X0156746Y0021791D01*
X0156896Y0021740D01*
X0157045Y0021685D01*
X0157192Y0021627D01*
X0157338Y0021565D01*
X0157482Y0021500D01*
X0157624Y0021430D01*
X0157765Y0021358D01*
X0157904Y0021281D01*
X0158040Y0021202D01*
X0158175Y0021118D01*
X0158308Y0021032D01*
X0158438Y0020942D01*
X0158566Y0020849D01*
X0158692Y0020753D01*
X0158815Y0020653D01*
X0158936Y0020551D01*
X0159054Y0020446D01*
X0159169Y0020337D01*
X0159282Y0020226D01*
X0159392Y0020112D01*
X0159499Y0019995D01*
X0159603Y0019876D01*
X0159704Y0019754D01*
X0159801Y0019629D01*
X0159896Y0019502D01*
X0159987Y0019373D01*
X0160076Y0019242D01*
X0160160Y0019108D01*
X0160242Y0018972D01*
X0160320Y0018835D01*
X0160394Y0018695D01*
X0160465Y0018553D01*
X0160533Y0018410D01*
X0160597Y0018265D01*
X0160657Y0018119D01*
X0160713Y0017971D01*
X0160766Y0017822D01*
X0160815Y0017671D01*
X0160860Y0017519D01*
X0160901Y0017366D01*
X0160939Y0017213D01*
X0160972Y0017058D01*
X0161002Y0016902D01*
X0161028Y0016746D01*
X0161049Y0016589D01*
X0161067Y0016432D01*
X0161081Y0016274D01*
X0161091Y0016116D01*
X0161097Y0015958D01*
X0161099Y0015800D01*
X0161097Y0015642D01*
X0161091Y0015484D01*
X0161081Y0015326D01*
X0161067Y0015168D01*
X0161049Y0015011D01*
X0161028Y0014854D01*
X0161002Y0014698D01*
X0160972Y0014542D01*
X0160939Y0014387D01*
X0160901Y0014234D01*
X0160860Y0014081D01*
X0160815Y0013929D01*
X0160766Y0013778D01*
X0160713Y0013629D01*
X0160657Y0013481D01*
X0160597Y0013335D01*
X0160533Y0013190D01*
X0160465Y0013047D01*
X0160394Y0012905D01*
X0160320Y0012765D01*
X0160242Y0012628D01*
X0160160Y0012492D01*
X0160076Y0012358D01*
X0159987Y0012227D01*
X0159896Y0012098D01*
X0159801Y0011971D01*
X0159704Y0011846D01*
X0159603Y0011724D01*
X0159499Y0011605D01*
X0159392Y0011488D01*
X0159282Y0011374D01*
X0159169Y0011263D01*
X0159054Y0011154D01*
X0158936Y0011049D01*
X0158815Y0010947D01*
X0158692Y0010847D01*
X0158566Y0010751D01*
X0158438Y0010658D01*
X0158308Y0010568D01*
X0158175Y0010482D01*
X0158040Y0010398D01*
X0157904Y0010319D01*
X0157765Y0010242D01*
X0157624Y0010170D01*
X0157482Y0010100D01*
X0157338Y0010035D01*
X0157192Y0009973D01*
X0157045Y0009915D01*
X0156896Y0009860D01*
X0156746Y0009809D01*
X0156595Y0009762D01*
X0156443Y0009719D01*
X0156290Y0009680D01*
X0156135Y0009644D01*
X0155980Y0009613D01*
X0155824Y0009585D01*
X0155668Y0009561D01*
X0155511Y0009541D01*
X0155353Y0009525D01*
X0155196Y0009513D01*
X0155037Y0009505D01*
X0154879Y0009501D01*
X0154721Y0009501D01*
X0154563Y0009505D01*
X0154404Y0009513D01*
X0154247Y0009525D01*
X0154089Y0009541D01*
X0153932Y0009561D01*
X0153776Y0009585D01*
X0153620Y0009613D01*
X0153465Y0009644D01*
X0153310Y0009680D01*
X0153157Y0009719D01*
X0153005Y0009762D01*
X0152854Y0009809D01*
X0152704Y0009860D01*
X0152555Y0009915D01*
X0152408Y0009973D01*
X0152262Y0010035D01*
X0152118Y0010100D01*
X0151976Y0010170D01*
X0151835Y0010242D01*
X0151696Y0010319D01*
X0151560Y0010398D01*
X0151425Y0010482D01*
X0151292Y0010568D01*
X0151162Y0010658D01*
X0151034Y0010751D01*
X0150908Y0010847D01*
X0150785Y0010947D01*
X0150664Y0011049D01*
X0150546Y0011154D01*
X0150431Y0011263D01*
X0150318Y0011374D01*
X0150208Y0011488D01*
X0150101Y0011605D01*
X0149997Y0011724D01*
X0149896Y0011846D01*
X0149799Y0011971D01*
X0149704Y0012098D01*
X0149613Y0012227D01*
X0149524Y0012358D01*
X0149440Y0012492D01*
X0149358Y0012628D01*
X0149280Y0012765D01*
X0149206Y0012905D01*
X0149135Y0013047D01*
X0149067Y0013190D01*
X0149003Y0013335D01*
X0148943Y0013481D01*
X0148887Y0013629D01*
X0148834Y0013778D01*
X0148785Y0013929D01*
X0148740Y0014081D01*
X0148699Y0014234D01*
X0148661Y0014387D01*
X0148628Y0014542D01*
X0148598Y0014698D01*
X0148572Y0014854D01*
X0148551Y0015011D01*
X0148533Y0015168D01*
X0148519Y0015326D01*
X0148509Y0015484D01*
X0148503Y0015642D01*
X0148501Y0015800D01*
X0003501Y0200800D02*
X0003503Y0200958D01*
X0003509Y0201116D01*
X0003519Y0201274D01*
X0003533Y0201432D01*
X0003551Y0201589D01*
X0003572Y0201746D01*
X0003598Y0201902D01*
X0003628Y0202058D01*
X0003661Y0202213D01*
X0003699Y0202366D01*
X0003740Y0202519D01*
X0003785Y0202671D01*
X0003834Y0202822D01*
X0003887Y0202971D01*
X0003943Y0203119D01*
X0004003Y0203265D01*
X0004067Y0203410D01*
X0004135Y0203553D01*
X0004206Y0203695D01*
X0004280Y0203835D01*
X0004358Y0203972D01*
X0004440Y0204108D01*
X0004524Y0204242D01*
X0004613Y0204373D01*
X0004704Y0204502D01*
X0004799Y0204629D01*
X0004896Y0204754D01*
X0004997Y0204876D01*
X0005101Y0204995D01*
X0005208Y0205112D01*
X0005318Y0205226D01*
X0005431Y0205337D01*
X0005546Y0205446D01*
X0005664Y0205551D01*
X0005785Y0205653D01*
X0005908Y0205753D01*
X0006034Y0205849D01*
X0006162Y0205942D01*
X0006292Y0206032D01*
X0006425Y0206118D01*
X0006560Y0206202D01*
X0006696Y0206281D01*
X0006835Y0206358D01*
X0006976Y0206430D01*
X0007118Y0206500D01*
X0007262Y0206565D01*
X0007408Y0206627D01*
X0007555Y0206685D01*
X0007704Y0206740D01*
X0007854Y0206791D01*
X0008005Y0206838D01*
X0008157Y0206881D01*
X0008310Y0206920D01*
X0008465Y0206956D01*
X0008620Y0206987D01*
X0008776Y0207015D01*
X0008932Y0207039D01*
X0009089Y0207059D01*
X0009247Y0207075D01*
X0009404Y0207087D01*
X0009563Y0207095D01*
X0009721Y0207099D01*
X0009879Y0207099D01*
X0010037Y0207095D01*
X0010196Y0207087D01*
X0010353Y0207075D01*
X0010511Y0207059D01*
X0010668Y0207039D01*
X0010824Y0207015D01*
X0010980Y0206987D01*
X0011135Y0206956D01*
X0011290Y0206920D01*
X0011443Y0206881D01*
X0011595Y0206838D01*
X0011746Y0206791D01*
X0011896Y0206740D01*
X0012045Y0206685D01*
X0012192Y0206627D01*
X0012338Y0206565D01*
X0012482Y0206500D01*
X0012624Y0206430D01*
X0012765Y0206358D01*
X0012904Y0206281D01*
X0013040Y0206202D01*
X0013175Y0206118D01*
X0013308Y0206032D01*
X0013438Y0205942D01*
X0013566Y0205849D01*
X0013692Y0205753D01*
X0013815Y0205653D01*
X0013936Y0205551D01*
X0014054Y0205446D01*
X0014169Y0205337D01*
X0014282Y0205226D01*
X0014392Y0205112D01*
X0014499Y0204995D01*
X0014603Y0204876D01*
X0014704Y0204754D01*
X0014801Y0204629D01*
X0014896Y0204502D01*
X0014987Y0204373D01*
X0015076Y0204242D01*
X0015160Y0204108D01*
X0015242Y0203972D01*
X0015320Y0203835D01*
X0015394Y0203695D01*
X0015465Y0203553D01*
X0015533Y0203410D01*
X0015597Y0203265D01*
X0015657Y0203119D01*
X0015713Y0202971D01*
X0015766Y0202822D01*
X0015815Y0202671D01*
X0015860Y0202519D01*
X0015901Y0202366D01*
X0015939Y0202213D01*
X0015972Y0202058D01*
X0016002Y0201902D01*
X0016028Y0201746D01*
X0016049Y0201589D01*
X0016067Y0201432D01*
X0016081Y0201274D01*
X0016091Y0201116D01*
X0016097Y0200958D01*
X0016099Y0200800D01*
X0016097Y0200642D01*
X0016091Y0200484D01*
X0016081Y0200326D01*
X0016067Y0200168D01*
X0016049Y0200011D01*
X0016028Y0199854D01*
X0016002Y0199698D01*
X0015972Y0199542D01*
X0015939Y0199387D01*
X0015901Y0199234D01*
X0015860Y0199081D01*
X0015815Y0198929D01*
X0015766Y0198778D01*
X0015713Y0198629D01*
X0015657Y0198481D01*
X0015597Y0198335D01*
X0015533Y0198190D01*
X0015465Y0198047D01*
X0015394Y0197905D01*
X0015320Y0197765D01*
X0015242Y0197628D01*
X0015160Y0197492D01*
X0015076Y0197358D01*
X0014987Y0197227D01*
X0014896Y0197098D01*
X0014801Y0196971D01*
X0014704Y0196846D01*
X0014603Y0196724D01*
X0014499Y0196605D01*
X0014392Y0196488D01*
X0014282Y0196374D01*
X0014169Y0196263D01*
X0014054Y0196154D01*
X0013936Y0196049D01*
X0013815Y0195947D01*
X0013692Y0195847D01*
X0013566Y0195751D01*
X0013438Y0195658D01*
X0013308Y0195568D01*
X0013175Y0195482D01*
X0013040Y0195398D01*
X0012904Y0195319D01*
X0012765Y0195242D01*
X0012624Y0195170D01*
X0012482Y0195100D01*
X0012338Y0195035D01*
X0012192Y0194973D01*
X0012045Y0194915D01*
X0011896Y0194860D01*
X0011746Y0194809D01*
X0011595Y0194762D01*
X0011443Y0194719D01*
X0011290Y0194680D01*
X0011135Y0194644D01*
X0010980Y0194613D01*
X0010824Y0194585D01*
X0010668Y0194561D01*
X0010511Y0194541D01*
X0010353Y0194525D01*
X0010196Y0194513D01*
X0010037Y0194505D01*
X0009879Y0194501D01*
X0009721Y0194501D01*
X0009563Y0194505D01*
X0009404Y0194513D01*
X0009247Y0194525D01*
X0009089Y0194541D01*
X0008932Y0194561D01*
X0008776Y0194585D01*
X0008620Y0194613D01*
X0008465Y0194644D01*
X0008310Y0194680D01*
X0008157Y0194719D01*
X0008005Y0194762D01*
X0007854Y0194809D01*
X0007704Y0194860D01*
X0007555Y0194915D01*
X0007408Y0194973D01*
X0007262Y0195035D01*
X0007118Y0195100D01*
X0006976Y0195170D01*
X0006835Y0195242D01*
X0006696Y0195319D01*
X0006560Y0195398D01*
X0006425Y0195482D01*
X0006292Y0195568D01*
X0006162Y0195658D01*
X0006034Y0195751D01*
X0005908Y0195847D01*
X0005785Y0195947D01*
X0005664Y0196049D01*
X0005546Y0196154D01*
X0005431Y0196263D01*
X0005318Y0196374D01*
X0005208Y0196488D01*
X0005101Y0196605D01*
X0004997Y0196724D01*
X0004896Y0196846D01*
X0004799Y0196971D01*
X0004704Y0197098D01*
X0004613Y0197227D01*
X0004524Y0197358D01*
X0004440Y0197492D01*
X0004358Y0197628D01*
X0004280Y0197765D01*
X0004206Y0197905D01*
X0004135Y0198047D01*
X0004067Y0198190D01*
X0004003Y0198335D01*
X0003943Y0198481D01*
X0003887Y0198629D01*
X0003834Y0198778D01*
X0003785Y0198929D01*
X0003740Y0199081D01*
X0003699Y0199234D01*
X0003661Y0199387D01*
X0003628Y0199542D01*
X0003598Y0199698D01*
X0003572Y0199854D01*
X0003551Y0200011D01*
X0003533Y0200168D01*
X0003519Y0200326D01*
X0003509Y0200484D01*
X0003503Y0200642D01*
X0003501Y0200800D01*
X0358501Y0200800D02*
X0358503Y0200958D01*
X0358509Y0201116D01*
X0358519Y0201274D01*
X0358533Y0201432D01*
X0358551Y0201589D01*
X0358572Y0201746D01*
X0358598Y0201902D01*
X0358628Y0202058D01*
X0358661Y0202213D01*
X0358699Y0202366D01*
X0358740Y0202519D01*
X0358785Y0202671D01*
X0358834Y0202822D01*
X0358887Y0202971D01*
X0358943Y0203119D01*
X0359003Y0203265D01*
X0359067Y0203410D01*
X0359135Y0203553D01*
X0359206Y0203695D01*
X0359280Y0203835D01*
X0359358Y0203972D01*
X0359440Y0204108D01*
X0359524Y0204242D01*
X0359613Y0204373D01*
X0359704Y0204502D01*
X0359799Y0204629D01*
X0359896Y0204754D01*
X0359997Y0204876D01*
X0360101Y0204995D01*
X0360208Y0205112D01*
X0360318Y0205226D01*
X0360431Y0205337D01*
X0360546Y0205446D01*
X0360664Y0205551D01*
X0360785Y0205653D01*
X0360908Y0205753D01*
X0361034Y0205849D01*
X0361162Y0205942D01*
X0361292Y0206032D01*
X0361425Y0206118D01*
X0361560Y0206202D01*
X0361696Y0206281D01*
X0361835Y0206358D01*
X0361976Y0206430D01*
X0362118Y0206500D01*
X0362262Y0206565D01*
X0362408Y0206627D01*
X0362555Y0206685D01*
X0362704Y0206740D01*
X0362854Y0206791D01*
X0363005Y0206838D01*
X0363157Y0206881D01*
X0363310Y0206920D01*
X0363465Y0206956D01*
X0363620Y0206987D01*
X0363776Y0207015D01*
X0363932Y0207039D01*
X0364089Y0207059D01*
X0364247Y0207075D01*
X0364404Y0207087D01*
X0364563Y0207095D01*
X0364721Y0207099D01*
X0364879Y0207099D01*
X0365037Y0207095D01*
X0365196Y0207087D01*
X0365353Y0207075D01*
X0365511Y0207059D01*
X0365668Y0207039D01*
X0365824Y0207015D01*
X0365980Y0206987D01*
X0366135Y0206956D01*
X0366290Y0206920D01*
X0366443Y0206881D01*
X0366595Y0206838D01*
X0366746Y0206791D01*
X0366896Y0206740D01*
X0367045Y0206685D01*
X0367192Y0206627D01*
X0367338Y0206565D01*
X0367482Y0206500D01*
X0367624Y0206430D01*
X0367765Y0206358D01*
X0367904Y0206281D01*
X0368040Y0206202D01*
X0368175Y0206118D01*
X0368308Y0206032D01*
X0368438Y0205942D01*
X0368566Y0205849D01*
X0368692Y0205753D01*
X0368815Y0205653D01*
X0368936Y0205551D01*
X0369054Y0205446D01*
X0369169Y0205337D01*
X0369282Y0205226D01*
X0369392Y0205112D01*
X0369499Y0204995D01*
X0369603Y0204876D01*
X0369704Y0204754D01*
X0369801Y0204629D01*
X0369896Y0204502D01*
X0369987Y0204373D01*
X0370076Y0204242D01*
X0370160Y0204108D01*
X0370242Y0203972D01*
X0370320Y0203835D01*
X0370394Y0203695D01*
X0370465Y0203553D01*
X0370533Y0203410D01*
X0370597Y0203265D01*
X0370657Y0203119D01*
X0370713Y0202971D01*
X0370766Y0202822D01*
X0370815Y0202671D01*
X0370860Y0202519D01*
X0370901Y0202366D01*
X0370939Y0202213D01*
X0370972Y0202058D01*
X0371002Y0201902D01*
X0371028Y0201746D01*
X0371049Y0201589D01*
X0371067Y0201432D01*
X0371081Y0201274D01*
X0371091Y0201116D01*
X0371097Y0200958D01*
X0371099Y0200800D01*
X0371097Y0200642D01*
X0371091Y0200484D01*
X0371081Y0200326D01*
X0371067Y0200168D01*
X0371049Y0200011D01*
X0371028Y0199854D01*
X0371002Y0199698D01*
X0370972Y0199542D01*
X0370939Y0199387D01*
X0370901Y0199234D01*
X0370860Y0199081D01*
X0370815Y0198929D01*
X0370766Y0198778D01*
X0370713Y0198629D01*
X0370657Y0198481D01*
X0370597Y0198335D01*
X0370533Y0198190D01*
X0370465Y0198047D01*
X0370394Y0197905D01*
X0370320Y0197765D01*
X0370242Y0197628D01*
X0370160Y0197492D01*
X0370076Y0197358D01*
X0369987Y0197227D01*
X0369896Y0197098D01*
X0369801Y0196971D01*
X0369704Y0196846D01*
X0369603Y0196724D01*
X0369499Y0196605D01*
X0369392Y0196488D01*
X0369282Y0196374D01*
X0369169Y0196263D01*
X0369054Y0196154D01*
X0368936Y0196049D01*
X0368815Y0195947D01*
X0368692Y0195847D01*
X0368566Y0195751D01*
X0368438Y0195658D01*
X0368308Y0195568D01*
X0368175Y0195482D01*
X0368040Y0195398D01*
X0367904Y0195319D01*
X0367765Y0195242D01*
X0367624Y0195170D01*
X0367482Y0195100D01*
X0367338Y0195035D01*
X0367192Y0194973D01*
X0367045Y0194915D01*
X0366896Y0194860D01*
X0366746Y0194809D01*
X0366595Y0194762D01*
X0366443Y0194719D01*
X0366290Y0194680D01*
X0366135Y0194644D01*
X0365980Y0194613D01*
X0365824Y0194585D01*
X0365668Y0194561D01*
X0365511Y0194541D01*
X0365353Y0194525D01*
X0365196Y0194513D01*
X0365037Y0194505D01*
X0364879Y0194501D01*
X0364721Y0194501D01*
X0364563Y0194505D01*
X0364404Y0194513D01*
X0364247Y0194525D01*
X0364089Y0194541D01*
X0363932Y0194561D01*
X0363776Y0194585D01*
X0363620Y0194613D01*
X0363465Y0194644D01*
X0363310Y0194680D01*
X0363157Y0194719D01*
X0363005Y0194762D01*
X0362854Y0194809D01*
X0362704Y0194860D01*
X0362555Y0194915D01*
X0362408Y0194973D01*
X0362262Y0195035D01*
X0362118Y0195100D01*
X0361976Y0195170D01*
X0361835Y0195242D01*
X0361696Y0195319D01*
X0361560Y0195398D01*
X0361425Y0195482D01*
X0361292Y0195568D01*
X0361162Y0195658D01*
X0361034Y0195751D01*
X0360908Y0195847D01*
X0360785Y0195947D01*
X0360664Y0196049D01*
X0360546Y0196154D01*
X0360431Y0196263D01*
X0360318Y0196374D01*
X0360208Y0196488D01*
X0360101Y0196605D01*
X0359997Y0196724D01*
X0359896Y0196846D01*
X0359799Y0196971D01*
X0359704Y0197098D01*
X0359613Y0197227D01*
X0359524Y0197358D01*
X0359440Y0197492D01*
X0359358Y0197628D01*
X0359280Y0197765D01*
X0359206Y0197905D01*
X0359135Y0198047D01*
X0359067Y0198190D01*
X0359003Y0198335D01*
X0358943Y0198481D01*
X0358887Y0198629D01*
X0358834Y0198778D01*
X0358785Y0198929D01*
X0358740Y0199081D01*
X0358699Y0199234D01*
X0358661Y0199387D01*
X0358628Y0199542D01*
X0358598Y0199698D01*
X0358572Y0199854D01*
X0358551Y0200011D01*
X0358533Y0200168D01*
X0358519Y0200326D01*
X0358509Y0200484D01*
X0358503Y0200642D01*
X0358501Y0200800D01*
D11*
X0265707Y0202438D02*
X0265707Y0198168D01*
X0264639Y0197100D01*
X0261436Y0197100D01*
X0261436Y0203505D01*
X0264639Y0203505D01*
X0265707Y0202438D01*
X0259261Y0203505D02*
X0254991Y0203505D01*
X0254991Y0197100D01*
X0259261Y0197100D01*
X0257126Y0200303D02*
X0254991Y0200303D01*
X0252816Y0197100D02*
X0248545Y0197100D01*
X0248545Y0203505D01*
X0246370Y0202438D02*
X0245303Y0203505D01*
X0243168Y0203505D01*
X0242100Y0202438D01*
X0242100Y0198168D01*
X0243168Y0197100D01*
X0245303Y0197100D01*
X0246370Y0198168D01*
X0246370Y0202438D01*
X0166300Y0160800D02*
X0166300Y0152800D01*
X0166298Y0152740D01*
X0166293Y0152679D01*
X0166284Y0152620D01*
X0166271Y0152561D01*
X0166255Y0152502D01*
X0166235Y0152445D01*
X0166212Y0152390D01*
X0166185Y0152335D01*
X0166156Y0152283D01*
X0166123Y0152232D01*
X0166087Y0152183D01*
X0166049Y0152137D01*
X0166007Y0152093D01*
X0165963Y0152051D01*
X0165917Y0152013D01*
X0165868Y0151977D01*
X0165817Y0151944D01*
X0165765Y0151915D01*
X0165710Y0151888D01*
X0165655Y0151865D01*
X0165598Y0151845D01*
X0165539Y0151829D01*
X0165480Y0151816D01*
X0165421Y0151807D01*
X0165360Y0151802D01*
X0165300Y0151800D01*
X0138300Y0151800D01*
X0138240Y0151802D01*
X0138179Y0151807D01*
X0138120Y0151816D01*
X0138061Y0151829D01*
X0138002Y0151845D01*
X0137945Y0151865D01*
X0137890Y0151888D01*
X0137835Y0151915D01*
X0137783Y0151944D01*
X0137732Y0151977D01*
X0137683Y0152013D01*
X0137637Y0152051D01*
X0137593Y0152093D01*
X0137551Y0152137D01*
X0137513Y0152183D01*
X0137477Y0152232D01*
X0137444Y0152283D01*
X0137415Y0152335D01*
X0137388Y0152390D01*
X0137365Y0152445D01*
X0137345Y0152502D01*
X0137329Y0152561D01*
X0137316Y0152620D01*
X0137307Y0152679D01*
X0137302Y0152740D01*
X0137300Y0152800D01*
X0137300Y0160800D01*
X0137302Y0160860D01*
X0137307Y0160921D01*
X0137316Y0160980D01*
X0137329Y0161039D01*
X0137345Y0161098D01*
X0137365Y0161155D01*
X0137388Y0161210D01*
X0137415Y0161265D01*
X0137444Y0161317D01*
X0137477Y0161368D01*
X0137513Y0161417D01*
X0137551Y0161463D01*
X0137593Y0161507D01*
X0137637Y0161549D01*
X0137683Y0161587D01*
X0137732Y0161623D01*
X0137783Y0161656D01*
X0137835Y0161685D01*
X0137890Y0161712D01*
X0137945Y0161735D01*
X0138002Y0161755D01*
X0138061Y0161771D01*
X0138120Y0161784D01*
X0138179Y0161793D01*
X0138240Y0161798D01*
X0138300Y0161800D01*
X0165300Y0161800D01*
X0165360Y0161798D01*
X0165421Y0161793D01*
X0165480Y0161784D01*
X0165539Y0161771D01*
X0165598Y0161755D01*
X0165655Y0161735D01*
X0165710Y0161712D01*
X0165765Y0161685D01*
X0165817Y0161656D01*
X0165868Y0161623D01*
X0165917Y0161587D01*
X0165963Y0161549D01*
X0166007Y0161507D01*
X0166049Y0161463D01*
X0166087Y0161417D01*
X0166123Y0161368D01*
X0166156Y0161317D01*
X0166185Y0161265D01*
X0166212Y0161210D01*
X0166235Y0161155D01*
X0166255Y0161098D01*
X0166271Y0161039D01*
X0166284Y0160980D01*
X0166293Y0160921D01*
X0166298Y0160860D01*
X0166300Y0160800D01*
X0157800Y0156800D02*
X0153100Y0156800D01*
X0150600Y0156800D02*
X0145800Y0156800D01*
X0133300Y0181800D02*
X0133304Y0182131D01*
X0133316Y0182462D01*
X0133337Y0182793D01*
X0133365Y0183123D01*
X0133402Y0183453D01*
X0133446Y0183781D01*
X0133499Y0184108D01*
X0133559Y0184434D01*
X0133628Y0184758D01*
X0133705Y0185080D01*
X0133789Y0185401D01*
X0133881Y0185719D01*
X0133981Y0186035D01*
X0134089Y0186348D01*
X0134205Y0186659D01*
X0134328Y0186966D01*
X0134458Y0187271D01*
X0134596Y0187572D01*
X0134741Y0187870D01*
X0134894Y0188164D01*
X0135054Y0188454D01*
X0135221Y0188740D01*
X0135394Y0189022D01*
X0135575Y0189300D01*
X0135763Y0189573D01*
X0135957Y0189842D01*
X0136157Y0190106D01*
X0136364Y0190364D01*
X0136578Y0190618D01*
X0136797Y0190866D01*
X0137023Y0191109D01*
X0137254Y0191346D01*
X0137491Y0191577D01*
X0137734Y0191803D01*
X0137982Y0192022D01*
X0138236Y0192236D01*
X0138494Y0192443D01*
X0138758Y0192643D01*
X0139027Y0192837D01*
X0139300Y0193025D01*
X0139578Y0193206D01*
X0139860Y0193379D01*
X0140146Y0193546D01*
X0140436Y0193706D01*
X0140730Y0193859D01*
X0141028Y0194004D01*
X0141329Y0194142D01*
X0141634Y0194272D01*
X0141941Y0194395D01*
X0142252Y0194511D01*
X0142565Y0194619D01*
X0142881Y0194719D01*
X0143199Y0194811D01*
X0143520Y0194895D01*
X0143842Y0194972D01*
X0144166Y0195041D01*
X0144492Y0195101D01*
X0144819Y0195154D01*
X0145147Y0195198D01*
X0145477Y0195235D01*
X0145807Y0195263D01*
X0146138Y0195284D01*
X0146469Y0195296D01*
X0146800Y0195300D01*
X0147131Y0195296D01*
X0147462Y0195284D01*
X0147793Y0195263D01*
X0148123Y0195235D01*
X0148453Y0195198D01*
X0148781Y0195154D01*
X0149108Y0195101D01*
X0149434Y0195041D01*
X0149758Y0194972D01*
X0150080Y0194895D01*
X0150401Y0194811D01*
X0150719Y0194719D01*
X0151035Y0194619D01*
X0151348Y0194511D01*
X0151659Y0194395D01*
X0151966Y0194272D01*
X0152271Y0194142D01*
X0152572Y0194004D01*
X0152870Y0193859D01*
X0153164Y0193706D01*
X0153454Y0193546D01*
X0153740Y0193379D01*
X0154022Y0193206D01*
X0154300Y0193025D01*
X0154573Y0192837D01*
X0154842Y0192643D01*
X0155106Y0192443D01*
X0155364Y0192236D01*
X0155618Y0192022D01*
X0155866Y0191803D01*
X0156109Y0191577D01*
X0156346Y0191346D01*
X0156577Y0191109D01*
X0156803Y0190866D01*
X0157022Y0190618D01*
X0157236Y0190364D01*
X0157443Y0190106D01*
X0157643Y0189842D01*
X0157837Y0189573D01*
X0158025Y0189300D01*
X0158206Y0189022D01*
X0158379Y0188740D01*
X0158546Y0188454D01*
X0158706Y0188164D01*
X0158859Y0187870D01*
X0159004Y0187572D01*
X0159142Y0187271D01*
X0159272Y0186966D01*
X0159395Y0186659D01*
X0159511Y0186348D01*
X0159619Y0186035D01*
X0159719Y0185719D01*
X0159811Y0185401D01*
X0159895Y0185080D01*
X0159972Y0184758D01*
X0160041Y0184434D01*
X0160101Y0184108D01*
X0160154Y0183781D01*
X0160198Y0183453D01*
X0160235Y0183123D01*
X0160263Y0182793D01*
X0160284Y0182462D01*
X0160296Y0182131D01*
X0160300Y0181800D01*
X0160296Y0181469D01*
X0160284Y0181138D01*
X0160263Y0180807D01*
X0160235Y0180477D01*
X0160198Y0180147D01*
X0160154Y0179819D01*
X0160101Y0179492D01*
X0160041Y0179166D01*
X0159972Y0178842D01*
X0159895Y0178520D01*
X0159811Y0178199D01*
X0159719Y0177881D01*
X0159619Y0177565D01*
X0159511Y0177252D01*
X0159395Y0176941D01*
X0159272Y0176634D01*
X0159142Y0176329D01*
X0159004Y0176028D01*
X0158859Y0175730D01*
X0158706Y0175436D01*
X0158546Y0175146D01*
X0158379Y0174860D01*
X0158206Y0174578D01*
X0158025Y0174300D01*
X0157837Y0174027D01*
X0157643Y0173758D01*
X0157443Y0173494D01*
X0157236Y0173236D01*
X0157022Y0172982D01*
X0156803Y0172734D01*
X0156577Y0172491D01*
X0156346Y0172254D01*
X0156109Y0172023D01*
X0155866Y0171797D01*
X0155618Y0171578D01*
X0155364Y0171364D01*
X0155106Y0171157D01*
X0154842Y0170957D01*
X0154573Y0170763D01*
X0154300Y0170575D01*
X0154022Y0170394D01*
X0153740Y0170221D01*
X0153454Y0170054D01*
X0153164Y0169894D01*
X0152870Y0169741D01*
X0152572Y0169596D01*
X0152271Y0169458D01*
X0151966Y0169328D01*
X0151659Y0169205D01*
X0151348Y0169089D01*
X0151035Y0168981D01*
X0150719Y0168881D01*
X0150401Y0168789D01*
X0150080Y0168705D01*
X0149758Y0168628D01*
X0149434Y0168559D01*
X0149108Y0168499D01*
X0148781Y0168446D01*
X0148453Y0168402D01*
X0148123Y0168365D01*
X0147793Y0168337D01*
X0147462Y0168316D01*
X0147131Y0168304D01*
X0146800Y0168300D01*
X0146469Y0168304D01*
X0146138Y0168316D01*
X0145807Y0168337D01*
X0145477Y0168365D01*
X0145147Y0168402D01*
X0144819Y0168446D01*
X0144492Y0168499D01*
X0144166Y0168559D01*
X0143842Y0168628D01*
X0143520Y0168705D01*
X0143199Y0168789D01*
X0142881Y0168881D01*
X0142565Y0168981D01*
X0142252Y0169089D01*
X0141941Y0169205D01*
X0141634Y0169328D01*
X0141329Y0169458D01*
X0141028Y0169596D01*
X0140730Y0169741D01*
X0140436Y0169894D01*
X0140146Y0170054D01*
X0139860Y0170221D01*
X0139578Y0170394D01*
X0139300Y0170575D01*
X0139027Y0170763D01*
X0138758Y0170957D01*
X0138494Y0171157D01*
X0138236Y0171364D01*
X0137982Y0171578D01*
X0137734Y0171797D01*
X0137491Y0172023D01*
X0137254Y0172254D01*
X0137023Y0172491D01*
X0136797Y0172734D01*
X0136578Y0172982D01*
X0136364Y0173236D01*
X0136157Y0173494D01*
X0135957Y0173758D01*
X0135763Y0174027D01*
X0135575Y0174300D01*
X0135394Y0174578D01*
X0135221Y0174860D01*
X0135054Y0175146D01*
X0134894Y0175436D01*
X0134741Y0175730D01*
X0134596Y0176028D01*
X0134458Y0176329D01*
X0134328Y0176634D01*
X0134205Y0176941D01*
X0134089Y0177252D01*
X0133981Y0177565D01*
X0133881Y0177881D01*
X0133789Y0178199D01*
X0133705Y0178520D01*
X0133628Y0178842D01*
X0133559Y0179166D01*
X0133499Y0179492D01*
X0133446Y0179819D01*
X0133402Y0180147D01*
X0133365Y0180477D01*
X0133337Y0180807D01*
X0133316Y0181138D01*
X0133304Y0181469D01*
X0133300Y0181800D01*
X0146800Y0190800D02*
X0146800Y0193800D01*
X0145300Y0192300D02*
X0148300Y0192300D01*
X0041501Y0186442D02*
X0041501Y0147143D01*
X0040702Y0147143D01*
X0014702Y0147143D01*
X0005300Y0147143D01*
X0005300Y0186442D01*
X0014702Y0186442D01*
X0040702Y0186442D01*
X0041501Y0186442D01*
X0040702Y0186442D02*
X0040702Y0147143D01*
X0033500Y0156943D02*
X0033502Y0157032D01*
X0033508Y0157121D01*
X0033518Y0157210D01*
X0033532Y0157298D01*
X0033549Y0157385D01*
X0033571Y0157471D01*
X0033597Y0157557D01*
X0033626Y0157641D01*
X0033659Y0157724D01*
X0033695Y0157805D01*
X0033736Y0157885D01*
X0033779Y0157962D01*
X0033826Y0158038D01*
X0033877Y0158111D01*
X0033930Y0158182D01*
X0033987Y0158251D01*
X0034047Y0158317D01*
X0034110Y0158381D01*
X0034175Y0158441D01*
X0034243Y0158499D01*
X0034314Y0158553D01*
X0034387Y0158604D01*
X0034462Y0158652D01*
X0034539Y0158697D01*
X0034618Y0158738D01*
X0034699Y0158775D01*
X0034781Y0158809D01*
X0034865Y0158840D01*
X0034950Y0158866D01*
X0035036Y0158889D01*
X0035123Y0158907D01*
X0035211Y0158922D01*
X0035300Y0158933D01*
X0035389Y0158940D01*
X0035478Y0158943D01*
X0035567Y0158942D01*
X0035656Y0158937D01*
X0035744Y0158928D01*
X0035833Y0158915D01*
X0035920Y0158898D01*
X0036007Y0158878D01*
X0036093Y0158853D01*
X0036177Y0158825D01*
X0036260Y0158793D01*
X0036342Y0158757D01*
X0036422Y0158718D01*
X0036500Y0158675D01*
X0036576Y0158629D01*
X0036650Y0158579D01*
X0036722Y0158526D01*
X0036791Y0158470D01*
X0036858Y0158411D01*
X0036922Y0158349D01*
X0036983Y0158285D01*
X0037042Y0158217D01*
X0037097Y0158147D01*
X0037149Y0158075D01*
X0037198Y0158000D01*
X0037243Y0157924D01*
X0037285Y0157845D01*
X0037323Y0157765D01*
X0037358Y0157683D01*
X0037389Y0157599D01*
X0037417Y0157514D01*
X0037440Y0157428D01*
X0037460Y0157341D01*
X0037476Y0157254D01*
X0037488Y0157165D01*
X0037496Y0157077D01*
X0037500Y0156988D01*
X0037500Y0156898D01*
X0037496Y0156809D01*
X0037488Y0156721D01*
X0037476Y0156632D01*
X0037460Y0156545D01*
X0037440Y0156458D01*
X0037417Y0156372D01*
X0037389Y0156287D01*
X0037358Y0156203D01*
X0037323Y0156121D01*
X0037285Y0156041D01*
X0037243Y0155962D01*
X0037198Y0155886D01*
X0037149Y0155811D01*
X0037097Y0155739D01*
X0037042Y0155669D01*
X0036983Y0155601D01*
X0036922Y0155537D01*
X0036858Y0155475D01*
X0036791Y0155416D01*
X0036722Y0155360D01*
X0036650Y0155307D01*
X0036576Y0155257D01*
X0036500Y0155211D01*
X0036422Y0155168D01*
X0036342Y0155129D01*
X0036260Y0155093D01*
X0036177Y0155061D01*
X0036093Y0155033D01*
X0036007Y0155008D01*
X0035920Y0154988D01*
X0035833Y0154971D01*
X0035744Y0154958D01*
X0035656Y0154949D01*
X0035567Y0154944D01*
X0035478Y0154943D01*
X0035389Y0154946D01*
X0035300Y0154953D01*
X0035211Y0154964D01*
X0035123Y0154979D01*
X0035036Y0154997D01*
X0034950Y0155020D01*
X0034865Y0155046D01*
X0034781Y0155077D01*
X0034699Y0155111D01*
X0034618Y0155148D01*
X0034539Y0155189D01*
X0034462Y0155234D01*
X0034387Y0155282D01*
X0034314Y0155333D01*
X0034243Y0155387D01*
X0034175Y0155445D01*
X0034110Y0155505D01*
X0034047Y0155569D01*
X0033987Y0155635D01*
X0033930Y0155704D01*
X0033877Y0155775D01*
X0033826Y0155848D01*
X0033779Y0155924D01*
X0033736Y0156001D01*
X0033695Y0156081D01*
X0033659Y0156162D01*
X0033626Y0156245D01*
X0033597Y0156329D01*
X0033571Y0156415D01*
X0033549Y0156501D01*
X0033532Y0156588D01*
X0033518Y0156676D01*
X0033508Y0156765D01*
X0033502Y0156854D01*
X0033500Y0156943D01*
X0014702Y0160442D02*
X0014702Y0173143D01*
X0014702Y0180143D02*
X0014702Y0186442D01*
X0033500Y0176643D02*
X0033502Y0176732D01*
X0033508Y0176821D01*
X0033518Y0176910D01*
X0033532Y0176998D01*
X0033549Y0177085D01*
X0033571Y0177171D01*
X0033597Y0177257D01*
X0033626Y0177341D01*
X0033659Y0177424D01*
X0033695Y0177505D01*
X0033736Y0177585D01*
X0033779Y0177662D01*
X0033826Y0177738D01*
X0033877Y0177811D01*
X0033930Y0177882D01*
X0033987Y0177951D01*
X0034047Y0178017D01*
X0034110Y0178081D01*
X0034175Y0178141D01*
X0034243Y0178199D01*
X0034314Y0178253D01*
X0034387Y0178304D01*
X0034462Y0178352D01*
X0034539Y0178397D01*
X0034618Y0178438D01*
X0034699Y0178475D01*
X0034781Y0178509D01*
X0034865Y0178540D01*
X0034950Y0178566D01*
X0035036Y0178589D01*
X0035123Y0178607D01*
X0035211Y0178622D01*
X0035300Y0178633D01*
X0035389Y0178640D01*
X0035478Y0178643D01*
X0035567Y0178642D01*
X0035656Y0178637D01*
X0035744Y0178628D01*
X0035833Y0178615D01*
X0035920Y0178598D01*
X0036007Y0178578D01*
X0036093Y0178553D01*
X0036177Y0178525D01*
X0036260Y0178493D01*
X0036342Y0178457D01*
X0036422Y0178418D01*
X0036500Y0178375D01*
X0036576Y0178329D01*
X0036650Y0178279D01*
X0036722Y0178226D01*
X0036791Y0178170D01*
X0036858Y0178111D01*
X0036922Y0178049D01*
X0036983Y0177985D01*
X0037042Y0177917D01*
X0037097Y0177847D01*
X0037149Y0177775D01*
X0037198Y0177700D01*
X0037243Y0177624D01*
X0037285Y0177545D01*
X0037323Y0177465D01*
X0037358Y0177383D01*
X0037389Y0177299D01*
X0037417Y0177214D01*
X0037440Y0177128D01*
X0037460Y0177041D01*
X0037476Y0176954D01*
X0037488Y0176865D01*
X0037496Y0176777D01*
X0037500Y0176688D01*
X0037500Y0176598D01*
X0037496Y0176509D01*
X0037488Y0176421D01*
X0037476Y0176332D01*
X0037460Y0176245D01*
X0037440Y0176158D01*
X0037417Y0176072D01*
X0037389Y0175987D01*
X0037358Y0175903D01*
X0037323Y0175821D01*
X0037285Y0175741D01*
X0037243Y0175662D01*
X0037198Y0175586D01*
X0037149Y0175511D01*
X0037097Y0175439D01*
X0037042Y0175369D01*
X0036983Y0175301D01*
X0036922Y0175237D01*
X0036858Y0175175D01*
X0036791Y0175116D01*
X0036722Y0175060D01*
X0036650Y0175007D01*
X0036576Y0174957D01*
X0036500Y0174911D01*
X0036422Y0174868D01*
X0036342Y0174829D01*
X0036260Y0174793D01*
X0036177Y0174761D01*
X0036093Y0174733D01*
X0036007Y0174708D01*
X0035920Y0174688D01*
X0035833Y0174671D01*
X0035744Y0174658D01*
X0035656Y0174649D01*
X0035567Y0174644D01*
X0035478Y0174643D01*
X0035389Y0174646D01*
X0035300Y0174653D01*
X0035211Y0174664D01*
X0035123Y0174679D01*
X0035036Y0174697D01*
X0034950Y0174720D01*
X0034865Y0174746D01*
X0034781Y0174777D01*
X0034699Y0174811D01*
X0034618Y0174848D01*
X0034539Y0174889D01*
X0034462Y0174934D01*
X0034387Y0174982D01*
X0034314Y0175033D01*
X0034243Y0175087D01*
X0034175Y0175145D01*
X0034110Y0175205D01*
X0034047Y0175269D01*
X0033987Y0175335D01*
X0033930Y0175404D01*
X0033877Y0175475D01*
X0033826Y0175548D01*
X0033779Y0175624D01*
X0033736Y0175701D01*
X0033695Y0175781D01*
X0033659Y0175862D01*
X0033626Y0175945D01*
X0033597Y0176029D01*
X0033571Y0176115D01*
X0033549Y0176201D01*
X0033532Y0176288D01*
X0033518Y0176376D01*
X0033508Y0176465D01*
X0033502Y0176554D01*
X0033500Y0176643D01*
X0014702Y0153442D02*
X0014702Y0147143D01*
X0166800Y0029300D02*
X0169300Y0031800D01*
X0174300Y0031800D01*
X0176800Y0029300D01*
X0179300Y0031800D01*
X0184300Y0031800D01*
X0186800Y0029300D01*
X0189300Y0031800D01*
X0194300Y0031800D01*
X0196800Y0029300D01*
X0199300Y0031800D01*
X0204300Y0031800D01*
X0206800Y0029300D01*
X0209300Y0031800D01*
X0214300Y0031800D01*
X0216800Y0029300D01*
X0216800Y0024300D01*
X0214300Y0021800D01*
X0209300Y0021800D01*
X0206800Y0024300D01*
X0204300Y0021800D01*
X0199300Y0021800D01*
X0196800Y0024300D01*
X0194300Y0021800D01*
X0189300Y0021800D01*
X0186800Y0024300D01*
X0184300Y0021800D01*
X0179300Y0021800D01*
X0176800Y0024300D01*
X0174300Y0021800D01*
X0169300Y0021800D01*
X0166800Y0024300D01*
X0166800Y0029300D01*
X0139261Y0013505D02*
X0134991Y0013505D01*
X0134991Y0007100D01*
X0139261Y0007100D01*
X0137126Y0010303D02*
X0134991Y0010303D01*
X0132816Y0013505D02*
X0130681Y0011370D01*
X0128545Y0013505D01*
X0128545Y0007100D01*
X0126370Y0008168D02*
X0126370Y0009235D01*
X0125303Y0010303D01*
X0122100Y0010303D01*
X0122100Y0013505D02*
X0122100Y0007100D01*
X0125303Y0007100D01*
X0126370Y0008168D01*
X0125303Y0010303D02*
X0126370Y0011370D01*
X0126370Y0012438D01*
X0125303Y0013505D01*
X0122100Y0013505D01*
X0132816Y0013505D02*
X0132816Y0007100D01*
X0097152Y0008168D02*
X0097152Y0012438D01*
X0096085Y0013505D01*
X0093950Y0013505D01*
X0092882Y0012438D01*
X0092882Y0008168D01*
X0093950Y0007100D01*
X0096085Y0007100D01*
X0097152Y0008168D01*
X0090707Y0007100D02*
X0090707Y0013505D01*
X0086436Y0013505D02*
X0090707Y0007100D01*
X0086436Y0007100D02*
X0086436Y0013505D01*
X0084261Y0012438D02*
X0083194Y0013505D01*
X0081059Y0013505D01*
X0079991Y0012438D01*
X0079991Y0008168D01*
X0081059Y0007100D01*
X0083194Y0007100D01*
X0084261Y0008168D01*
X0084261Y0012438D01*
X0077816Y0012438D02*
X0077816Y0013505D01*
X0073545Y0013505D01*
X0071370Y0012438D02*
X0070303Y0013505D01*
X0068168Y0013505D01*
X0067100Y0012438D01*
X0067100Y0008168D01*
X0068168Y0007100D01*
X0070303Y0007100D01*
X0071370Y0008168D01*
X0071370Y0012438D01*
X0073545Y0008168D02*
X0073545Y0007100D01*
X0077816Y0007100D01*
X0073545Y0008168D02*
X0077816Y0012438D01*
X0039964Y0012438D02*
X0038897Y0013505D01*
X0036762Y0013505D01*
X0035694Y0012438D01*
X0035694Y0008168D01*
X0036762Y0007100D01*
X0038897Y0007100D01*
X0039964Y0008168D01*
X0033532Y0007100D02*
X0031397Y0007100D01*
X0032465Y0007100D02*
X0032465Y0013505D01*
X0033532Y0013505D02*
X0031397Y0013505D01*
X0029235Y0013505D02*
X0027100Y0013505D01*
X0028168Y0013505D02*
X0028168Y0007100D01*
X0029235Y0007100D02*
X0027100Y0007100D01*
X0242100Y0007100D02*
X0242100Y0013505D01*
X0244235Y0011370D01*
X0246370Y0013505D01*
X0246370Y0007100D01*
X0248545Y0008168D02*
X0249613Y0007100D01*
X0251748Y0007100D01*
X0252816Y0008168D01*
X0252816Y0012438D01*
X0251748Y0013505D01*
X0249613Y0013505D01*
X0248545Y0012438D01*
X0248545Y0008168D01*
X0250681Y0009235D02*
X0252816Y0007100D01*
X0291800Y0024300D02*
X0291800Y0029300D01*
X0294300Y0031800D01*
X0299300Y0031800D01*
X0301800Y0029300D01*
X0304300Y0031800D01*
X0309300Y0031800D01*
X0311800Y0029300D01*
X0314300Y0031800D01*
X0319300Y0031800D01*
X0321800Y0029300D01*
X0324300Y0031800D01*
X0329300Y0031800D01*
X0331800Y0029300D01*
X0334300Y0031800D01*
X0339300Y0031800D01*
X0341800Y0029300D01*
X0344300Y0031800D01*
X0349300Y0031800D01*
X0351800Y0029300D01*
X0354300Y0031800D01*
X0359300Y0031800D01*
X0361800Y0029300D01*
X0364300Y0031800D01*
X0369300Y0031800D01*
X0371800Y0029300D01*
X0371800Y0024300D01*
X0369300Y0021800D01*
X0364300Y0021800D01*
X0361800Y0024300D01*
X0359300Y0021800D01*
X0354300Y0021800D01*
X0351800Y0024300D01*
X0349300Y0021800D01*
X0344300Y0021800D01*
X0341800Y0024300D01*
X0339300Y0021800D01*
X0334300Y0021800D01*
X0331800Y0024300D01*
X0329300Y0021800D01*
X0324300Y0021800D01*
X0321800Y0024300D01*
X0319300Y0021800D01*
X0314300Y0021800D01*
X0311800Y0024300D01*
X0309300Y0021800D01*
X0304300Y0021800D01*
X0301800Y0024300D01*
X0299300Y0021800D01*
X0294300Y0021800D01*
X0291800Y0024300D01*
D12*
X0262965Y0032000D02*
X0259896Y0032000D01*
X0261431Y0032000D02*
X0261431Y0036604D01*
X0259896Y0035069D01*
X0255465Y0035069D02*
X0255465Y0035837D01*
X0254698Y0036604D01*
X0253163Y0036604D01*
X0252396Y0035837D01*
X0255465Y0035069D02*
X0252396Y0032000D01*
X0255465Y0032000D01*
X0247965Y0032767D02*
X0247198Y0032000D01*
X0245663Y0032000D01*
X0244896Y0032767D01*
X0246431Y0034302D02*
X0247198Y0034302D01*
X0247965Y0033535D01*
X0247965Y0032767D01*
X0247198Y0034302D02*
X0247965Y0035069D01*
X0247965Y0035837D01*
X0247198Y0036604D01*
X0245663Y0036604D01*
X0244896Y0035837D01*
X0240465Y0034302D02*
X0237396Y0034302D01*
X0239698Y0036604D01*
X0239698Y0032000D01*
X0192000Y0075465D02*
X0192000Y0080069D01*
X0194302Y0080069D01*
X0195069Y0079302D01*
X0195069Y0077767D01*
X0194302Y0077000D01*
X0192000Y0077000D01*
X0196604Y0077767D02*
X0196604Y0079302D01*
X0197371Y0080069D01*
X0198906Y0080069D01*
X0199673Y0079302D01*
X0199673Y0078535D01*
X0196604Y0078535D01*
X0196604Y0077767D02*
X0197371Y0077000D01*
X0198906Y0077000D01*
X0201208Y0077000D02*
X0201208Y0080069D01*
X0201208Y0078535D02*
X0202742Y0080069D01*
X0203510Y0080069D01*
X0209648Y0079302D02*
X0209648Y0077767D01*
X0210416Y0077000D01*
X0212718Y0077000D01*
X0214252Y0077767D02*
X0214252Y0079302D01*
X0215020Y0080069D01*
X0216554Y0080069D01*
X0217322Y0079302D01*
X0217322Y0077767D01*
X0216554Y0077000D01*
X0215020Y0077000D01*
X0214252Y0077767D01*
X0212718Y0080069D02*
X0210416Y0080069D01*
X0209648Y0079302D01*
X0218856Y0080069D02*
X0218856Y0077000D01*
X0218856Y0080069D02*
X0221158Y0080069D01*
X0221926Y0079302D01*
X0221926Y0077000D01*
X0224227Y0077767D02*
X0224995Y0077000D01*
X0224227Y0077767D02*
X0224227Y0080837D01*
X0223460Y0080069D02*
X0224995Y0080069D01*
X0226529Y0079302D02*
X0226529Y0077767D01*
X0227297Y0077000D01*
X0228831Y0077000D01*
X0229599Y0077767D01*
X0229599Y0079302D01*
X0228831Y0080069D01*
X0227297Y0080069D01*
X0226529Y0079302D01*
X0235737Y0079302D02*
X0235737Y0077767D01*
X0236505Y0077000D01*
X0238807Y0077000D01*
X0238807Y0081604D01*
X0238807Y0080069D02*
X0236505Y0080069D01*
X0235737Y0079302D01*
X0240341Y0080069D02*
X0241109Y0080069D01*
X0241109Y0077000D01*
X0241876Y0077000D02*
X0240341Y0077000D01*
X0243410Y0077000D02*
X0243410Y0077767D01*
X0244178Y0077767D01*
X0244178Y0077000D01*
X0243410Y0077000D01*
X0243410Y0079302D02*
X0243410Y0080069D01*
X0244178Y0080069D01*
X0244178Y0079302D01*
X0243410Y0079302D01*
X0241109Y0081604D02*
X0241109Y0082371D01*
X0250316Y0080069D02*
X0250316Y0077000D01*
X0250316Y0079302D02*
X0253386Y0079302D01*
X0253386Y0080069D02*
X0253386Y0077000D01*
X0254920Y0077767D02*
X0255688Y0077000D01*
X0257222Y0077000D01*
X0257990Y0077767D01*
X0257990Y0078535D01*
X0257222Y0079302D01*
X0255688Y0079302D01*
X0254920Y0080069D01*
X0254920Y0080837D01*
X0255688Y0081604D01*
X0257222Y0081604D01*
X0257990Y0080837D01*
X0259524Y0080837D02*
X0259524Y0080069D01*
X0260292Y0079302D01*
X0261826Y0079302D01*
X0262593Y0078535D01*
X0262593Y0077767D01*
X0261826Y0077000D01*
X0260292Y0077000D01*
X0259524Y0077767D01*
X0259524Y0080837D02*
X0260292Y0081604D01*
X0261826Y0081604D01*
X0262593Y0080837D01*
X0264128Y0080837D02*
X0264128Y0077767D01*
X0264895Y0077000D01*
X0266430Y0077000D01*
X0267197Y0077767D01*
X0267197Y0080837D01*
X0266430Y0081604D01*
X0264895Y0081604D01*
X0264128Y0080837D01*
X0268732Y0080837D02*
X0268732Y0077767D01*
X0269499Y0077000D01*
X0271034Y0077000D01*
X0271801Y0077767D01*
X0273336Y0077000D02*
X0274871Y0077000D01*
X0274103Y0077000D02*
X0274103Y0081604D01*
X0273336Y0081604D02*
X0274871Y0081604D01*
X0276405Y0080069D02*
X0277940Y0081604D01*
X0279475Y0080069D01*
X0279475Y0077000D01*
X0281009Y0077000D02*
X0284078Y0077000D01*
X0285613Y0077000D02*
X0287148Y0077000D01*
X0286380Y0077000D02*
X0286380Y0081604D01*
X0285613Y0081604D02*
X0287148Y0081604D01*
X0288682Y0080837D02*
X0288682Y0077767D01*
X0289450Y0077000D01*
X0290984Y0077000D01*
X0291752Y0077767D01*
X0291752Y0080837D01*
X0290984Y0081604D01*
X0289450Y0081604D01*
X0288682Y0080837D01*
X0284078Y0080837D02*
X0284078Y0081604D01*
X0281009Y0081604D01*
X0279475Y0079302D02*
X0276405Y0079302D01*
X0276405Y0080069D02*
X0276405Y0077000D01*
X0281009Y0077000D02*
X0281009Y0077767D01*
X0284078Y0080837D01*
X0293286Y0081604D02*
X0296356Y0077000D01*
X0296356Y0081604D01*
X0297890Y0081604D02*
X0297890Y0077000D01*
X0300960Y0077000D01*
X0299425Y0079302D02*
X0297890Y0079302D01*
X0297890Y0081604D02*
X0300960Y0081604D01*
X0293286Y0081604D02*
X0293286Y0077000D01*
X0307098Y0077000D02*
X0307098Y0081604D01*
X0309400Y0081604D01*
X0310167Y0080837D01*
X0310167Y0079302D01*
X0309400Y0078535D01*
X0307098Y0078535D01*
X0311702Y0079302D02*
X0314771Y0079302D01*
X0314771Y0080069D02*
X0314771Y0077000D01*
X0316306Y0077000D02*
X0316306Y0081604D01*
X0318608Y0081604D01*
X0319375Y0080837D01*
X0319375Y0079302D01*
X0318608Y0078535D01*
X0316306Y0078535D01*
X0317841Y0078535D02*
X0319375Y0077000D01*
X0320910Y0077767D02*
X0321677Y0077000D01*
X0323212Y0077000D01*
X0323979Y0077767D01*
X0325514Y0077767D02*
X0325514Y0080837D01*
X0326281Y0081604D01*
X0327816Y0081604D01*
X0328583Y0080837D01*
X0328583Y0077767D01*
X0327816Y0077000D01*
X0326281Y0077000D01*
X0325514Y0077767D01*
X0323979Y0080837D02*
X0323212Y0081604D01*
X0321677Y0081604D01*
X0320910Y0080837D01*
X0320910Y0077767D01*
X0314771Y0080069D02*
X0313237Y0081604D01*
X0311702Y0080069D01*
X0311702Y0077000D01*
X0334722Y0077767D02*
X0335489Y0077000D01*
X0337024Y0077000D01*
X0337791Y0077767D01*
X0337791Y0078535D01*
X0337024Y0079302D01*
X0335489Y0079302D01*
X0334722Y0080069D01*
X0334722Y0080837D01*
X0335489Y0081604D01*
X0337024Y0081604D01*
X0337791Y0080837D01*
X0339326Y0081604D02*
X0339326Y0077000D01*
X0342395Y0077000D01*
X0343929Y0077767D02*
X0344697Y0077000D01*
X0346231Y0077000D01*
X0346999Y0077767D01*
X0346999Y0079302D01*
X0345464Y0079302D01*
X0343929Y0080837D02*
X0343929Y0077767D01*
X0343929Y0080837D02*
X0344697Y0081604D01*
X0346231Y0081604D01*
X0346999Y0080837D01*
X0348533Y0080069D02*
X0350068Y0081604D01*
X0351603Y0080069D01*
X0351603Y0077000D01*
X0353137Y0077000D02*
X0353137Y0081604D01*
X0356207Y0077000D01*
X0356207Y0081604D01*
X0357741Y0081604D02*
X0360811Y0081604D01*
X0362345Y0081604D02*
X0363880Y0081604D01*
X0363112Y0081604D02*
X0363112Y0077000D01*
X0362345Y0077000D02*
X0363880Y0077000D01*
X0365414Y0077000D02*
X0365414Y0081604D01*
X0368484Y0077000D01*
X0368484Y0081604D01*
X0370018Y0081604D02*
X0371553Y0081604D01*
X0370786Y0081604D02*
X0370786Y0077000D01*
X0371553Y0077000D02*
X0370018Y0077000D01*
X0377692Y0077767D02*
X0378459Y0077000D01*
X0379994Y0077000D01*
X0380761Y0077767D01*
X0380761Y0080837D01*
X0379994Y0081604D01*
X0378459Y0081604D01*
X0377692Y0080837D01*
X0377692Y0077767D01*
X0382296Y0077000D02*
X0382296Y0080069D01*
X0384597Y0080069D01*
X0385365Y0079302D01*
X0385365Y0077000D01*
X0386899Y0077000D02*
X0388434Y0077000D01*
X0387667Y0077000D02*
X0387667Y0081604D01*
X0386899Y0081604D01*
X0389969Y0080069D02*
X0389969Y0077767D01*
X0390736Y0077000D01*
X0393038Y0077000D01*
X0393038Y0080069D01*
X0394573Y0079302D02*
X0395340Y0078535D01*
X0396875Y0078535D01*
X0397642Y0077767D01*
X0396875Y0077000D01*
X0394573Y0077000D01*
X0394573Y0079302D02*
X0395340Y0080069D01*
X0397642Y0080069D01*
X0359276Y0081604D02*
X0359276Y0077000D01*
X0351603Y0079302D02*
X0348533Y0079302D01*
X0348533Y0080069D02*
X0348533Y0077000D01*
X0342395Y0081604D02*
X0339326Y0081604D01*
X0339326Y0079302D02*
X0340860Y0079302D01*
X0340752Y0092000D02*
X0341619Y0092000D01*
X0341619Y0092867D01*
X0340752Y0092867D01*
X0340752Y0092000D01*
X0339065Y0093735D02*
X0335596Y0093735D01*
X0335596Y0094602D02*
X0335596Y0092867D01*
X0336463Y0092000D01*
X0338198Y0092000D01*
X0339065Y0093735D02*
X0339065Y0094602D01*
X0338198Y0095470D01*
X0336463Y0095470D01*
X0335596Y0094602D01*
X0333909Y0095470D02*
X0331307Y0095470D01*
X0330439Y0094602D01*
X0330439Y0092867D01*
X0331307Y0092000D01*
X0333909Y0092000D01*
X0333909Y0097204D01*
X0328752Y0094602D02*
X0328752Y0092000D01*
X0326150Y0092000D01*
X0325283Y0092867D01*
X0326150Y0093735D01*
X0328752Y0093735D01*
X0328752Y0094602D02*
X0327885Y0095470D01*
X0326150Y0095470D01*
X0323596Y0094602D02*
X0323596Y0092000D01*
X0321861Y0092000D02*
X0321861Y0094602D01*
X0322729Y0095470D01*
X0323596Y0094602D01*
X0321861Y0094602D02*
X0320994Y0095470D01*
X0320126Y0095470D01*
X0320126Y0092000D01*
X0318432Y0095470D02*
X0317564Y0095470D01*
X0315829Y0093735D01*
X0314143Y0093735D02*
X0310673Y0093735D01*
X0310673Y0094602D02*
X0310673Y0092867D01*
X0311540Y0092000D01*
X0313275Y0092000D01*
X0314143Y0093735D02*
X0314143Y0094602D01*
X0313275Y0095470D01*
X0311540Y0095470D01*
X0310673Y0094602D01*
X0308986Y0095470D02*
X0306384Y0095470D01*
X0305517Y0094602D01*
X0305517Y0092867D01*
X0306384Y0092000D01*
X0308986Y0092000D01*
X0308986Y0097204D01*
X0303830Y0094602D02*
X0303830Y0092000D01*
X0303830Y0094602D02*
X0302962Y0095470D01*
X0300360Y0095470D01*
X0300360Y0092000D01*
X0298673Y0092867D02*
X0298673Y0094602D01*
X0297806Y0095470D01*
X0296071Y0095470D01*
X0295204Y0094602D01*
X0295204Y0092867D01*
X0296071Y0092000D01*
X0297806Y0092000D01*
X0298673Y0092867D01*
X0293517Y0092867D02*
X0293517Y0095470D01*
X0293517Y0092867D02*
X0292650Y0092000D01*
X0291782Y0092867D01*
X0290915Y0092000D01*
X0290047Y0092867D01*
X0290047Y0095470D01*
X0288337Y0092867D02*
X0288337Y0092000D01*
X0287469Y0092000D01*
X0287469Y0092867D01*
X0288337Y0092867D01*
X0285782Y0092867D02*
X0285782Y0095470D01*
X0285782Y0092867D02*
X0284915Y0092000D01*
X0284048Y0092867D01*
X0283180Y0092000D01*
X0282313Y0092867D01*
X0282313Y0095470D01*
X0280626Y0095470D02*
X0280626Y0092867D01*
X0279759Y0092000D01*
X0278891Y0092867D01*
X0278024Y0092000D01*
X0277156Y0092867D01*
X0277156Y0095470D01*
X0275470Y0095470D02*
X0275470Y0092867D01*
X0274602Y0092000D01*
X0273735Y0092867D01*
X0272867Y0092000D01*
X0272000Y0092867D01*
X0272000Y0095470D01*
X0261877Y0097204D02*
X0258408Y0097204D01*
X0258408Y0092000D01*
X0261877Y0092000D01*
X0260142Y0094602D02*
X0258408Y0094602D01*
X0256721Y0092867D02*
X0256721Y0096337D01*
X0255853Y0097204D01*
X0253251Y0097204D01*
X0253251Y0092000D01*
X0255853Y0092000D01*
X0256721Y0092867D01*
X0251564Y0092000D02*
X0251564Y0095470D01*
X0249830Y0097204D01*
X0248095Y0095470D01*
X0248095Y0092000D01*
X0246408Y0092000D02*
X0246408Y0097204D01*
X0244673Y0095470D01*
X0242938Y0097204D01*
X0242938Y0092000D01*
X0241252Y0092000D02*
X0239517Y0093735D01*
X0240384Y0093735D02*
X0237782Y0093735D01*
X0237782Y0092000D02*
X0237782Y0097204D01*
X0240384Y0097204D01*
X0241252Y0096337D01*
X0241252Y0094602D01*
X0240384Y0093735D01*
X0236095Y0092000D02*
X0232626Y0092000D01*
X0232626Y0097204D01*
X0236095Y0097204D01*
X0234360Y0094602D02*
X0232626Y0094602D01*
X0230939Y0092867D02*
X0230939Y0096337D01*
X0230071Y0097204D01*
X0227469Y0097204D01*
X0227469Y0092000D01*
X0230071Y0092000D01*
X0230939Y0092867D01*
X0225782Y0092000D02*
X0225782Y0097204D01*
X0222313Y0097204D02*
X0225782Y0092000D01*
X0222313Y0092000D02*
X0222313Y0097204D01*
X0220626Y0096337D02*
X0219759Y0097204D01*
X0218024Y0097204D01*
X0217156Y0096337D01*
X0217156Y0092867D01*
X0218024Y0092000D01*
X0219759Y0092000D01*
X0220626Y0092867D01*
X0220626Y0096337D01*
X0215470Y0097204D02*
X0215470Y0092000D01*
X0213735Y0093735D01*
X0212000Y0092000D01*
X0212000Y0097204D01*
X0212000Y0102000D02*
X0215470Y0102000D01*
X0217156Y0102867D02*
X0218024Y0102000D01*
X0219759Y0102000D01*
X0220626Y0102867D01*
X0220626Y0107204D01*
X0222313Y0106337D02*
X0222313Y0102867D01*
X0223180Y0102000D01*
X0224915Y0102000D01*
X0225782Y0102867D01*
X0227469Y0102000D02*
X0227469Y0105470D01*
X0229204Y0107204D01*
X0230939Y0105470D01*
X0230939Y0102000D01*
X0230939Y0104602D02*
X0227469Y0104602D01*
X0225782Y0106337D02*
X0224915Y0107204D01*
X0223180Y0107204D01*
X0222313Y0106337D01*
X0217156Y0107204D02*
X0217156Y0102867D01*
X0212000Y0102000D02*
X0212000Y0107204D01*
X0237782Y0106337D02*
X0237782Y0102867D01*
X0238649Y0102000D01*
X0240384Y0102000D01*
X0241252Y0102867D01*
X0242938Y0102000D02*
X0242938Y0107204D01*
X0245541Y0107204D01*
X0246408Y0106337D01*
X0246408Y0104602D01*
X0245541Y0103735D01*
X0242938Y0103735D01*
X0244673Y0103735D02*
X0246408Y0102000D01*
X0248095Y0102867D02*
X0248962Y0102000D01*
X0250697Y0102000D01*
X0251564Y0102867D01*
X0251564Y0106337D01*
X0250697Y0107204D01*
X0248962Y0107204D01*
X0248095Y0106337D01*
X0248095Y0102867D01*
X0241252Y0106337D02*
X0240384Y0107204D01*
X0238649Y0107204D01*
X0237782Y0106337D01*
X0253251Y0107204D02*
X0256721Y0107204D01*
X0258408Y0107204D02*
X0261877Y0107204D01*
X0263564Y0107204D02*
X0265299Y0107204D01*
X0264431Y0107204D02*
X0264431Y0102000D01*
X0263564Y0102000D02*
X0265299Y0102000D01*
X0267002Y0102867D02*
X0267869Y0102000D01*
X0269604Y0102000D01*
X0270471Y0102867D01*
X0269604Y0103735D02*
X0269604Y0105470D01*
X0267869Y0105470D01*
X0267869Y0103735D01*
X0269604Y0103735D01*
X0270471Y0104602D01*
X0270471Y0106337D01*
X0269604Y0107204D01*
X0267869Y0107204D01*
X0267002Y0106337D01*
X0267002Y0102867D01*
X0260142Y0102000D02*
X0260142Y0107204D01*
X0254986Y0107204D02*
X0254986Y0102000D01*
X0251564Y0094602D02*
X0248095Y0094602D01*
X0251851Y0081604D02*
X0253386Y0080069D01*
X0251851Y0081604D02*
X0250316Y0080069D01*
X0268732Y0080837D02*
X0269499Y0081604D01*
X0271034Y0081604D01*
X0271801Y0080837D01*
X0277314Y0102000D02*
X0280784Y0105470D01*
X0280784Y0106337D01*
X0279917Y0107204D01*
X0278182Y0107204D01*
X0277314Y0106337D01*
X0282471Y0106337D02*
X0282471Y0102867D01*
X0285940Y0106337D01*
X0285940Y0102867D01*
X0285073Y0102000D01*
X0283338Y0102000D01*
X0282471Y0102867D01*
X0280784Y0102000D02*
X0277314Y0102000D01*
X0282471Y0106337D02*
X0283338Y0107204D01*
X0285073Y0107204D01*
X0285940Y0106337D01*
X0287627Y0105470D02*
X0289362Y0107204D01*
X0289362Y0102000D01*
X0287627Y0102000D02*
X0291097Y0102000D01*
X0292784Y0102867D02*
X0293651Y0102000D01*
X0295386Y0102000D01*
X0296253Y0102867D01*
X0296253Y0106337D01*
X0295386Y0107204D01*
X0293651Y0107204D01*
X0292784Y0106337D01*
X0292784Y0105470D01*
X0293651Y0104602D01*
X0296253Y0104602D01*
X0315829Y0095470D02*
X0315829Y0092000D01*
X0343330Y0092000D02*
X0345065Y0092000D01*
X0344198Y0092000D02*
X0344198Y0095470D01*
X0343330Y0095470D01*
X0344198Y0097204D02*
X0344198Y0098072D01*
X0346768Y0095470D02*
X0348503Y0095470D01*
X0347635Y0096337D02*
X0347635Y0092867D01*
X0348503Y0092000D01*
X0307232Y0117767D02*
X0306465Y0117000D01*
X0304930Y0117000D01*
X0304163Y0117767D01*
X0304163Y0119302D02*
X0305698Y0120069D01*
X0306465Y0120069D01*
X0307232Y0119302D01*
X0307232Y0117767D01*
X0304163Y0119302D02*
X0304163Y0121604D01*
X0307232Y0121604D01*
X0302628Y0121604D02*
X0299559Y0117000D01*
X0302628Y0117000D02*
X0299559Y0121604D01*
X0287232Y0119302D02*
X0284163Y0119302D01*
X0286465Y0121604D01*
X0286465Y0117000D01*
X0282628Y0117000D02*
X0279559Y0121604D01*
X0282628Y0121604D02*
X0279559Y0117000D01*
X0349886Y0176465D02*
X0349886Y0181069D01*
X0352188Y0181069D01*
X0352955Y0180302D01*
X0352955Y0178767D01*
X0352188Y0178000D01*
X0349886Y0178000D01*
X0348351Y0178000D02*
X0347584Y0178767D01*
X0347584Y0181837D01*
X0348351Y0181069D02*
X0346816Y0181069D01*
X0345282Y0181069D02*
X0344514Y0181069D01*
X0342980Y0179535D01*
X0342980Y0181069D02*
X0342980Y0178000D01*
X0341445Y0178000D02*
X0339143Y0178000D01*
X0338376Y0178767D01*
X0339143Y0179535D01*
X0341445Y0179535D01*
X0341445Y0180302D02*
X0341445Y0178000D01*
X0341445Y0180302D02*
X0340678Y0181069D01*
X0339143Y0181069D01*
X0336841Y0180302D02*
X0336841Y0178000D01*
X0335307Y0178000D02*
X0335307Y0180302D01*
X0336074Y0181069D01*
X0336841Y0180302D01*
X0335307Y0180302D02*
X0334539Y0181069D01*
X0333772Y0181069D01*
X0333772Y0178000D01*
X0332237Y0178767D02*
X0331470Y0179535D01*
X0329935Y0179535D01*
X0329168Y0180302D01*
X0329935Y0181069D01*
X0332237Y0181069D01*
X0332237Y0178767D02*
X0331470Y0178000D01*
X0329168Y0178000D01*
X0327633Y0178767D02*
X0327633Y0180302D01*
X0326866Y0181069D01*
X0325331Y0181069D01*
X0324564Y0180302D01*
X0324564Y0178767D01*
X0325331Y0178000D01*
X0326866Y0178000D01*
X0327633Y0178767D01*
X0323029Y0178000D02*
X0323029Y0180302D01*
X0322262Y0181069D01*
X0319960Y0181069D01*
X0319960Y0178000D01*
X0318425Y0178000D02*
X0316124Y0178000D01*
X0315356Y0178767D01*
X0316124Y0179535D01*
X0318425Y0179535D01*
X0318425Y0180302D02*
X0318425Y0178000D01*
X0318425Y0180302D02*
X0317658Y0181069D01*
X0316124Y0181069D01*
X0313054Y0182604D02*
X0313054Y0178000D01*
X0312287Y0178000D02*
X0313822Y0178000D01*
X0310752Y0178000D02*
X0309218Y0178000D01*
X0309985Y0178000D02*
X0309985Y0181069D01*
X0309218Y0181069D01*
X0309985Y0182604D02*
X0309985Y0183371D01*
X0312287Y0182604D02*
X0313054Y0182604D01*
X0307683Y0180302D02*
X0307683Y0178000D01*
X0306148Y0178000D02*
X0306148Y0180302D01*
X0306916Y0181069D01*
X0307683Y0180302D01*
X0306148Y0180302D02*
X0305381Y0181069D01*
X0304614Y0181069D01*
X0304614Y0178000D01*
X0303079Y0178000D02*
X0302312Y0178000D01*
X0302312Y0178767D01*
X0303079Y0178767D01*
X0303079Y0178000D01*
X0300777Y0178767D02*
X0300777Y0181069D01*
X0300777Y0178767D02*
X0300010Y0178000D01*
X0299242Y0178767D01*
X0298475Y0178000D01*
X0297708Y0178767D01*
X0297708Y0181069D01*
X0296173Y0181069D02*
X0296173Y0178767D01*
X0295406Y0178000D01*
X0294639Y0178767D01*
X0293871Y0178000D01*
X0293104Y0178767D01*
X0293104Y0181069D01*
X0291569Y0181069D02*
X0291569Y0178767D01*
X0290802Y0178000D01*
X0290035Y0178767D01*
X0289267Y0178000D01*
X0288500Y0178767D01*
X0288500Y0181069D01*
X0277965Y0192000D02*
X0274896Y0192000D01*
X0276431Y0192000D02*
X0276431Y0196604D01*
X0274896Y0195069D01*
X0270465Y0195069D02*
X0270465Y0195837D01*
X0269698Y0196604D01*
X0268163Y0196604D01*
X0267396Y0195837D01*
X0270465Y0195069D02*
X0267396Y0192000D01*
X0270465Y0192000D01*
X0262965Y0192767D02*
X0262198Y0192000D01*
X0260663Y0192000D01*
X0259896Y0192767D01*
X0261431Y0194302D02*
X0262198Y0194302D01*
X0262965Y0193535D01*
X0262965Y0192767D01*
X0262198Y0194302D02*
X0262965Y0195069D01*
X0262965Y0195837D01*
X0262198Y0196604D01*
X0260663Y0196604D01*
X0259896Y0195837D01*
X0255465Y0194302D02*
X0252396Y0194302D01*
X0254698Y0196604D01*
X0254698Y0192000D01*
X0203706Y0181990D02*
X0202505Y0180789D01*
X0200103Y0180789D01*
X0200103Y0179508D02*
X0200103Y0177106D01*
X0201904Y0177106D01*
X0201304Y0178307D01*
X0201304Y0178907D01*
X0201904Y0179508D01*
X0203105Y0179508D01*
X0203706Y0178907D01*
X0203706Y0177706D01*
X0203105Y0177106D01*
X0203706Y0181990D02*
X0202505Y0183191D01*
X0200103Y0183191D01*
X0167201Y0184366D02*
X0167201Y0186768D01*
X0165999Y0188049D02*
X0166600Y0188650D01*
X0166600Y0189851D01*
X0165999Y0190451D01*
X0165399Y0190451D01*
X0164798Y0189851D01*
X0164798Y0188650D01*
X0164198Y0188049D01*
X0163597Y0188049D01*
X0162997Y0188650D01*
X0162997Y0189851D01*
X0163597Y0190451D01*
X0162997Y0191733D02*
X0166600Y0191733D01*
X0166600Y0194135D01*
X0166600Y0195416D02*
X0162997Y0195416D01*
X0166600Y0197818D01*
X0162997Y0197818D01*
X0163597Y0199099D02*
X0164198Y0199099D01*
X0164798Y0199699D01*
X0164798Y0200900D01*
X0165399Y0201501D01*
X0165999Y0201501D01*
X0166600Y0200900D01*
X0166600Y0199699D01*
X0165999Y0199099D01*
X0163597Y0199099D02*
X0162997Y0199699D01*
X0162997Y0200900D01*
X0163597Y0201501D01*
X0160020Y0202000D02*
X0160020Y0205069D01*
X0158485Y0206604D01*
X0156950Y0205069D01*
X0156950Y0202000D01*
X0155416Y0202000D02*
X0153881Y0202000D01*
X0154648Y0202000D02*
X0154648Y0206604D01*
X0153881Y0206604D02*
X0155416Y0206604D01*
X0156950Y0204302D02*
X0160020Y0204302D01*
X0166158Y0205069D02*
X0167693Y0202000D01*
X0169227Y0205069D01*
X0170762Y0204302D02*
X0171529Y0205069D01*
X0173064Y0205069D01*
X0173831Y0204302D01*
X0173831Y0203535D01*
X0170762Y0203535D01*
X0170762Y0204302D02*
X0170762Y0202767D01*
X0171529Y0202000D01*
X0173064Y0202000D01*
X0175366Y0202000D02*
X0175366Y0205069D01*
X0175366Y0203535D02*
X0176901Y0205069D01*
X0177668Y0205069D01*
X0181505Y0206604D02*
X0184574Y0206604D01*
X0184574Y0205837D01*
X0181505Y0202767D01*
X0181505Y0202000D01*
X0179970Y0202000D02*
X0179203Y0202000D01*
X0179203Y0202767D01*
X0179970Y0202767D01*
X0179970Y0202000D01*
X0164798Y0192934D02*
X0164798Y0191733D01*
X0162997Y0191733D02*
X0162997Y0194135D01*
X0152346Y0202000D02*
X0150812Y0203535D01*
X0151579Y0203535D02*
X0149277Y0203535D01*
X0149277Y0202000D02*
X0149277Y0206604D01*
X0151579Y0206604D01*
X0152346Y0205837D01*
X0152346Y0204302D01*
X0151579Y0203535D01*
X0147742Y0204302D02*
X0144673Y0204302D01*
X0144673Y0205069D02*
X0144673Y0202000D01*
X0143139Y0202000D02*
X0140069Y0202000D01*
X0140069Y0206604D01*
X0138535Y0206604D02*
X0137000Y0206604D01*
X0137767Y0206604D02*
X0137767Y0202000D01*
X0137000Y0202000D02*
X0138535Y0202000D01*
X0144673Y0205069D02*
X0146208Y0206604D01*
X0147742Y0205069D01*
X0147742Y0202000D01*
X0116381Y0196802D02*
X0113312Y0196802D01*
X0111777Y0199104D02*
X0108708Y0199104D01*
X0110242Y0199104D02*
X0110242Y0194500D01*
X0107173Y0195267D02*
X0107173Y0199104D01*
X0104104Y0199104D02*
X0104104Y0195267D01*
X0104871Y0194500D01*
X0106406Y0194500D01*
X0107173Y0195267D01*
X0102569Y0195267D02*
X0102569Y0198337D01*
X0101802Y0199104D01*
X0100267Y0199104D01*
X0099500Y0198337D01*
X0099500Y0195267D01*
X0100267Y0194500D01*
X0101802Y0194500D01*
X0102569Y0195267D01*
X0067742Y0196802D02*
X0064673Y0196802D01*
X0063139Y0194500D02*
X0063139Y0199104D01*
X0060069Y0199104D02*
X0063139Y0194500D01*
X0060069Y0194500D02*
X0060069Y0199104D01*
X0058535Y0199104D02*
X0057000Y0199104D01*
X0057767Y0199104D02*
X0057767Y0194500D01*
X0057000Y0194500D02*
X0058535Y0194500D01*
X0058535Y0159104D02*
X0057000Y0159104D01*
X0057767Y0159104D02*
X0057767Y0154500D01*
X0057000Y0154500D02*
X0058535Y0154500D01*
X0060069Y0154500D02*
X0060069Y0159104D01*
X0063139Y0154500D01*
X0063139Y0159104D01*
X0064673Y0156802D02*
X0067742Y0156802D01*
X0066208Y0158337D02*
X0066208Y0155267D01*
X0099500Y0155267D02*
X0100267Y0154500D01*
X0101802Y0154500D01*
X0102569Y0155267D01*
X0102569Y0158337D01*
X0101802Y0159104D01*
X0100267Y0159104D01*
X0099500Y0158337D01*
X0099500Y0155267D01*
X0104104Y0155267D02*
X0104871Y0154500D01*
X0106406Y0154500D01*
X0107173Y0155267D01*
X0107173Y0159104D01*
X0108708Y0159104D02*
X0111777Y0159104D01*
X0110242Y0159104D02*
X0110242Y0154500D01*
X0113312Y0156802D02*
X0116381Y0156802D01*
X0114846Y0158337D02*
X0114846Y0155267D01*
X0104104Y0155267D02*
X0104104Y0159104D01*
X0162997Y0177000D02*
X0164798Y0177000D01*
X0164198Y0178201D01*
X0164198Y0178802D01*
X0164798Y0179402D01*
X0165999Y0179402D01*
X0166600Y0178802D01*
X0166600Y0177601D01*
X0165999Y0177000D01*
X0162997Y0177000D02*
X0162997Y0179402D01*
X0162997Y0180683D02*
X0165399Y0180683D01*
X0166600Y0181884D01*
X0165399Y0183085D01*
X0162997Y0183085D01*
X0354490Y0178767D02*
X0355257Y0179535D01*
X0357559Y0179535D01*
X0357559Y0180302D02*
X0357559Y0178000D01*
X0355257Y0178000D01*
X0354490Y0178767D01*
X0355257Y0181069D02*
X0356792Y0181069D01*
X0357559Y0180302D01*
X0359093Y0181069D02*
X0359093Y0178000D01*
X0359093Y0179535D02*
X0360628Y0181069D01*
X0361395Y0181069D01*
X0362930Y0179535D02*
X0365232Y0178000D01*
X0366767Y0178000D02*
X0367534Y0178000D01*
X0367534Y0178767D01*
X0366767Y0178767D01*
X0366767Y0178000D01*
X0369069Y0178000D02*
X0370603Y0178000D01*
X0369836Y0178000D02*
X0369836Y0181069D01*
X0369069Y0181069D01*
X0369836Y0182604D02*
X0369836Y0183371D01*
X0372138Y0181069D02*
X0373673Y0181069D01*
X0372905Y0181837D02*
X0372905Y0178767D01*
X0373673Y0178000D01*
X0365232Y0181069D02*
X0362930Y0179535D01*
X0362930Y0178000D02*
X0362930Y0182604D01*
X0141431Y0036604D02*
X0141431Y0032000D01*
X0142965Y0032000D02*
X0139896Y0032000D01*
X0135465Y0032000D02*
X0132396Y0032000D01*
X0135465Y0035069D01*
X0135465Y0035837D01*
X0134698Y0036604D01*
X0133163Y0036604D01*
X0132396Y0035837D01*
X0127965Y0035837D02*
X0127198Y0036604D01*
X0125663Y0036604D01*
X0124896Y0035837D01*
X0126431Y0034302D02*
X0127198Y0034302D01*
X0127965Y0033535D01*
X0127965Y0032767D01*
X0127198Y0032000D01*
X0125663Y0032000D01*
X0124896Y0032767D01*
X0127198Y0034302D02*
X0127965Y0035069D01*
X0127965Y0035837D01*
X0120465Y0034302D02*
X0117396Y0034302D01*
X0119698Y0036604D01*
X0119698Y0032000D01*
X0139896Y0035069D02*
X0141431Y0036604D01*
X0092965Y0032000D02*
X0089896Y0032000D01*
X0091431Y0032000D02*
X0091431Y0036604D01*
X0089896Y0035069D01*
X0085465Y0035069D02*
X0085465Y0035837D01*
X0084698Y0036604D01*
X0083163Y0036604D01*
X0082396Y0035837D01*
X0085465Y0035069D02*
X0082396Y0032000D01*
X0085465Y0032000D01*
X0077965Y0032767D02*
X0077198Y0032000D01*
X0075663Y0032000D01*
X0074896Y0032767D01*
X0076431Y0034302D02*
X0077198Y0034302D01*
X0077965Y0033535D01*
X0077965Y0032767D01*
X0077198Y0034302D02*
X0077965Y0035069D01*
X0077965Y0035837D01*
X0077198Y0036604D01*
X0075663Y0036604D01*
X0074896Y0035837D01*
X0070465Y0034302D02*
X0067396Y0034302D01*
X0069698Y0036604D01*
X0069698Y0032000D01*
X0047965Y0032000D02*
X0044896Y0032000D01*
X0046431Y0032000D02*
X0046431Y0036604D01*
X0044896Y0035069D01*
X0040465Y0035069D02*
X0040465Y0035837D01*
X0039698Y0036604D01*
X0038163Y0036604D01*
X0037396Y0035837D01*
X0040465Y0035069D02*
X0037396Y0032000D01*
X0040465Y0032000D01*
X0032965Y0032767D02*
X0032198Y0032000D01*
X0030663Y0032000D01*
X0029896Y0032767D01*
X0031431Y0034302D02*
X0032198Y0034302D01*
X0032965Y0033535D01*
X0032965Y0032767D01*
X0032198Y0034302D02*
X0032965Y0035069D01*
X0032965Y0035837D01*
X0032198Y0036604D01*
X0030663Y0036604D01*
X0029896Y0035837D01*
X0025465Y0034302D02*
X0022396Y0034302D01*
X0024698Y0036604D01*
X0024698Y0032000D01*
D13*
X0019241Y0034674D02*
X0050737Y0034674D01*
X0050737Y0018926D01*
X0038926Y0018926D01*
X0038926Y0020894D01*
X0031052Y0020894D01*
X0031052Y0018926D01*
X0019241Y0018926D01*
X0019241Y0020894D01*
X0031052Y0020894D01*
X0031052Y0018926D02*
X0038926Y0018926D01*
X0038926Y0020894D02*
X0050343Y0020894D01*
X0064241Y0020894D02*
X0064241Y0018926D01*
X0076052Y0018926D01*
X0076052Y0020894D01*
X0083926Y0020894D01*
X0083926Y0018926D01*
X0076052Y0018926D01*
X0076052Y0020894D02*
X0064241Y0020894D01*
X0064241Y0034674D01*
X0095737Y0034674D01*
X0095737Y0018926D01*
X0083926Y0018926D01*
X0083926Y0020894D02*
X0095343Y0020894D01*
X0114241Y0020894D02*
X0114241Y0018926D01*
X0126052Y0018926D01*
X0126052Y0020894D01*
X0133926Y0020894D01*
X0133926Y0018926D01*
X0126052Y0018926D01*
X0126052Y0020894D02*
X0114241Y0020894D01*
X0114241Y0034674D01*
X0145737Y0034674D01*
X0145737Y0018926D01*
X0133926Y0018926D01*
X0133926Y0020894D02*
X0145343Y0020894D01*
X0169550Y0018553D02*
X0171051Y0020054D01*
X0171051Y0015550D01*
X0169550Y0015550D02*
X0172553Y0015550D01*
X0172405Y0033550D02*
X0172405Y0038054D01*
X0173155Y0038054D02*
X0171654Y0038054D01*
X0170053Y0038054D02*
X0170053Y0033550D01*
X0171654Y0033550D02*
X0173155Y0033550D01*
X0174723Y0034301D02*
X0175474Y0033550D01*
X0176975Y0033550D01*
X0177726Y0034301D01*
X0179327Y0034301D02*
X0180078Y0033550D01*
X0181579Y0033550D01*
X0182330Y0034301D01*
X0182330Y0035051D01*
X0181579Y0035802D01*
X0180078Y0035802D01*
X0179327Y0036553D01*
X0179327Y0037303D01*
X0180078Y0038054D01*
X0181579Y0038054D01*
X0182330Y0037303D01*
X0177726Y0037303D02*
X0176975Y0038054D01*
X0175474Y0038054D01*
X0174723Y0037303D01*
X0174723Y0034301D01*
X0170053Y0038054D02*
X0168551Y0036553D01*
X0167050Y0038054D01*
X0167050Y0033550D01*
X0163800Y0052800D02*
X0163800Y0142800D01*
X0003800Y0142800D01*
X0003800Y0052800D01*
X0163800Y0052800D01*
X0153800Y0067800D02*
X0143800Y0067800D01*
X0143800Y0127800D01*
X0153800Y0127800D01*
X0153800Y0067800D01*
X0156839Y0080800D02*
X0156839Y0140800D01*
X0251839Y0140800D01*
X0251839Y0080800D01*
X0156839Y0080800D01*
X0209550Y0038054D02*
X0209550Y0035802D01*
X0211051Y0036553D01*
X0211802Y0036553D01*
X0212553Y0035802D01*
X0212553Y0034301D01*
X0211802Y0033550D01*
X0210301Y0033550D01*
X0209550Y0034301D01*
X0209550Y0038054D02*
X0212553Y0038054D01*
X0234241Y0034674D02*
X0265737Y0034674D01*
X0265737Y0018926D01*
X0253926Y0018926D01*
X0253926Y0020894D01*
X0246052Y0020894D01*
X0246052Y0018926D01*
X0234241Y0018926D01*
X0234241Y0020894D01*
X0246052Y0020894D01*
X0246052Y0018926D02*
X0253926Y0018926D01*
X0253926Y0020894D02*
X0265343Y0020894D01*
X0294946Y0019303D02*
X0294946Y0018553D01*
X0295697Y0017802D01*
X0297198Y0017802D01*
X0297949Y0017051D01*
X0297949Y0016301D01*
X0297198Y0015550D01*
X0295697Y0015550D01*
X0294946Y0016301D01*
X0294946Y0017051D01*
X0295697Y0017802D01*
X0297198Y0017802D02*
X0297949Y0018553D01*
X0297949Y0019303D01*
X0297198Y0020054D01*
X0295697Y0020054D01*
X0294946Y0019303D01*
X0339822Y0020054D02*
X0339822Y0015550D01*
X0339822Y0017051D02*
X0342074Y0017051D01*
X0342825Y0017802D01*
X0342825Y0019303D01*
X0342074Y0020054D01*
X0339822Y0020054D01*
X0344426Y0020054D02*
X0345928Y0018553D01*
X0347429Y0020054D01*
X0347429Y0015550D01*
X0349030Y0016301D02*
X0349781Y0015550D01*
X0351282Y0015550D01*
X0352033Y0016301D01*
X0352033Y0017051D01*
X0351282Y0017802D01*
X0349781Y0017802D01*
X0349030Y0018553D01*
X0349030Y0019303D01*
X0349781Y0020054D01*
X0351282Y0020054D01*
X0352033Y0019303D01*
X0353634Y0020054D02*
X0353634Y0017802D01*
X0355136Y0018553D01*
X0355886Y0018553D01*
X0356637Y0017802D01*
X0356637Y0016301D01*
X0355886Y0015550D01*
X0354385Y0015550D01*
X0353634Y0016301D01*
X0358238Y0016301D02*
X0361241Y0019303D01*
X0361241Y0016301D01*
X0360490Y0015550D01*
X0358989Y0015550D01*
X0358238Y0016301D01*
X0358238Y0019303D01*
X0358989Y0020054D01*
X0360490Y0020054D01*
X0361241Y0019303D01*
X0362842Y0019303D02*
X0363593Y0020054D01*
X0365094Y0020054D01*
X0365845Y0019303D01*
X0362842Y0016301D01*
X0363593Y0015550D01*
X0365094Y0015550D01*
X0365845Y0016301D01*
X0365845Y0019303D01*
X0367446Y0019303D02*
X0368197Y0020054D01*
X0369698Y0020054D01*
X0370449Y0019303D01*
X0370449Y0018553D01*
X0369698Y0017802D01*
X0370449Y0017051D01*
X0370449Y0016301D01*
X0369698Y0015550D01*
X0368197Y0015550D01*
X0367446Y0016301D01*
X0368947Y0017802D02*
X0369698Y0017802D01*
X0362842Y0016301D02*
X0362842Y0019303D01*
X0356637Y0020054D02*
X0353634Y0020054D01*
X0344426Y0020054D02*
X0344426Y0015550D01*
X0364446Y0033550D02*
X0367449Y0033550D01*
X0365947Y0033550D02*
X0365947Y0038054D01*
X0364446Y0036553D01*
X0371839Y0095800D02*
X0371839Y0120800D01*
X0376839Y0125800D02*
X0376839Y0100800D01*
X0351839Y0100800D01*
X0351839Y0125800D01*
X0376839Y0125800D01*
X0280737Y0178926D02*
X0280737Y0194674D01*
X0249241Y0194674D01*
X0249241Y0180894D01*
X0261052Y0180894D01*
X0261052Y0178926D01*
X0249241Y0178926D01*
X0249241Y0180894D01*
X0261052Y0180894D02*
X0268926Y0180894D01*
X0268926Y0178926D01*
X0261052Y0178926D01*
X0268926Y0178926D02*
X0280737Y0178926D01*
X0280343Y0180894D02*
X0268926Y0180894D01*
X0287550Y0198050D02*
X0287550Y0204155D01*
X0289585Y0202120D01*
X0291620Y0204155D01*
X0291620Y0198050D01*
X0293627Y0198050D02*
X0295662Y0198050D01*
X0294645Y0198050D02*
X0294645Y0204155D01*
X0295662Y0204155D02*
X0293627Y0204155D01*
X0297679Y0204155D02*
X0297679Y0198050D01*
X0301749Y0198050D01*
X0303756Y0198050D02*
X0303756Y0202120D01*
X0305791Y0204155D01*
X0307826Y0202120D01*
X0307826Y0198050D01*
X0309833Y0198050D02*
X0309833Y0204155D01*
X0313903Y0198050D01*
X0313903Y0204155D01*
X0315910Y0203138D02*
X0315910Y0199068D01*
X0316928Y0198050D01*
X0318963Y0198050D01*
X0319980Y0199068D01*
X0319980Y0203138D01*
X0318963Y0204155D01*
X0316928Y0204155D01*
X0315910Y0203138D01*
X0307826Y0201103D02*
X0303756Y0201103D01*
X0312550Y0194155D02*
X0315603Y0194155D01*
X0316620Y0193138D01*
X0316620Y0191103D01*
X0315603Y0190085D01*
X0312550Y0190085D01*
X0312550Y0188050D02*
X0312550Y0194155D01*
X0318627Y0192120D02*
X0318627Y0188050D01*
X0318627Y0191103D02*
X0322697Y0191103D01*
X0322697Y0192120D02*
X0322697Y0188050D01*
X0324704Y0188050D02*
X0324704Y0194155D01*
X0327757Y0194155D01*
X0328775Y0193138D01*
X0328775Y0191103D01*
X0327757Y0190085D01*
X0324704Y0190085D01*
X0326739Y0190085D02*
X0328775Y0188050D01*
X0330782Y0188050D02*
X0330782Y0194155D01*
X0331799Y0191103D02*
X0334852Y0188050D01*
X0330782Y0190085D02*
X0334852Y0194155D01*
X0336697Y0198050D02*
X0336697Y0204155D01*
X0334662Y0202120D01*
X0332627Y0204155D01*
X0332627Y0198050D01*
X0330620Y0199068D02*
X0329603Y0198050D01*
X0327568Y0198050D01*
X0326550Y0199068D01*
X0327568Y0201103D02*
X0329603Y0201103D01*
X0330620Y0200085D01*
X0330620Y0199068D01*
X0327568Y0201103D02*
X0326550Y0202120D01*
X0326550Y0203138D01*
X0327568Y0204155D01*
X0329603Y0204155D01*
X0330620Y0203138D01*
X0338704Y0202120D02*
X0340739Y0204155D01*
X0342775Y0202120D01*
X0342775Y0198050D01*
X0344782Y0198050D02*
X0344782Y0204155D01*
X0347834Y0204155D01*
X0348852Y0203138D01*
X0348852Y0201103D01*
X0347834Y0200085D01*
X0344782Y0200085D01*
X0346817Y0200085D02*
X0348852Y0198050D01*
X0352894Y0198050D02*
X0352894Y0204155D01*
X0350859Y0204155D02*
X0354929Y0204155D01*
X0342775Y0201103D02*
X0338704Y0201103D01*
X0338704Y0202120D02*
X0338704Y0198050D01*
X0322697Y0192120D02*
X0320662Y0194155D01*
X0318627Y0192120D01*
X0228300Y0194300D02*
X0228300Y0196800D01*
X0228300Y0189300D02*
X0228300Y0186800D01*
X0228300Y0179300D02*
X0228300Y0177800D01*
X0206800Y0181800D02*
X0205300Y0181800D01*
X0205300Y0182800D01*
X0205300Y0186800D02*
X0205300Y0196800D01*
X0159550Y0168449D02*
X0159550Y0165446D01*
X0159550Y0166947D02*
X0155046Y0166947D01*
X0156547Y0165446D01*
X0155797Y0163845D02*
X0155046Y0163094D01*
X0155046Y0161593D01*
X0155797Y0160842D01*
X0158799Y0160842D01*
X0159550Y0161593D01*
X0159550Y0163094D01*
X0158799Y0163845D01*
X0146156Y0163550D02*
X0143154Y0163550D01*
X0146156Y0166553D01*
X0146156Y0167303D01*
X0145406Y0168054D01*
X0143905Y0168054D01*
X0143154Y0167303D01*
X0141553Y0167303D02*
X0140802Y0168054D01*
X0139301Y0168054D01*
X0138550Y0167303D01*
X0138550Y0164301D01*
X0139301Y0163550D01*
X0140802Y0163550D01*
X0141553Y0164301D01*
X0127800Y0146800D02*
X0127800Y0207300D01*
X0046800Y0207300D01*
X0046800Y0146800D01*
X0127800Y0146800D01*
X0034050Y0160789D02*
X0031047Y0163791D01*
X0030297Y0163791D01*
X0029546Y0163041D01*
X0029546Y0161539D01*
X0030297Y0160789D01*
X0034050Y0160789D02*
X0034050Y0163791D01*
X0011850Y0172985D02*
X0007346Y0175987D01*
X0008097Y0177589D02*
X0007346Y0178339D01*
X0007346Y0179841D01*
X0008097Y0180591D01*
X0008847Y0180591D01*
X0009598Y0179841D01*
X0010349Y0180591D01*
X0011099Y0180591D01*
X0011850Y0179841D01*
X0011850Y0178339D01*
X0011099Y0177589D01*
X0011850Y0175987D02*
X0007346Y0172985D01*
X0009598Y0179090D02*
X0009598Y0179841D01*
X0029546Y0181790D02*
X0031047Y0180289D01*
X0029546Y0181790D02*
X0034050Y0181790D01*
X0034050Y0180289D02*
X0034050Y0183291D01*
X0019241Y0034674D02*
X0019241Y0020894D01*
X0234241Y0020894D02*
X0234241Y0034674D01*
D14*
X0181839Y0050800D02*
X0181839Y0170800D01*
X0371839Y0170800D01*
X0371839Y0120800D01*
X0371839Y0050800D01*
X0181839Y0050800D01*
X0176800Y0176800D02*
X0169300Y0176800D01*
X0169300Y0196800D01*
X0176800Y0196800D01*
X0176800Y0176800D01*
X0194300Y0176800D01*
X0194300Y0196800D01*
X0176800Y0196800D01*
X0205300Y0196800D02*
X0216800Y0196800D01*
X0228300Y0196800D01*
X0228300Y0194300D01*
X0225800Y0194300D01*
X0225800Y0189300D01*
X0228300Y0189300D01*
X0228300Y0184300D01*
X0225800Y0184300D01*
X0225800Y0179300D01*
X0228300Y0179300D01*
X0228300Y0176800D01*
X0228300Y0186800D01*
X0228300Y0189300D02*
X0228300Y0194300D01*
X0211300Y0190800D02*
X0209300Y0191800D01*
X0205300Y0191800D01*
X0205300Y0190800D02*
X0209300Y0190800D01*
X0209300Y0191800D01*
X0209300Y0190800D02*
X0209300Y0182800D01*
X0205300Y0182800D01*
X0205300Y0181800D02*
X0209300Y0181800D01*
X0211300Y0182800D01*
X0211300Y0190800D01*
X0205300Y0186800D02*
X0205300Y0181800D01*
X0205300Y0176800D01*
X0216800Y0176800D01*
X0228300Y0176800D01*
X0209300Y0181800D02*
X0209300Y0182800D01*
D15*
X0140236Y0124536D02*
X0139618Y0125153D01*
X0138384Y0125153D01*
X0137767Y0124536D01*
X0137767Y0123919D01*
X0138384Y0123302D01*
X0139618Y0123302D01*
X0140236Y0122684D01*
X0140236Y0122067D01*
X0139618Y0121450D01*
X0138384Y0121450D01*
X0137767Y0122067D01*
X0136552Y0122067D02*
X0135935Y0121450D01*
X0134701Y0121450D01*
X0134084Y0122067D01*
X0134084Y0124536D01*
X0134701Y0125153D01*
X0135935Y0125153D01*
X0136552Y0124536D01*
X0135935Y0115153D02*
X0134701Y0115153D01*
X0134084Y0114536D01*
X0134084Y0112067D01*
X0134701Y0111450D01*
X0135935Y0111450D01*
X0136552Y0112067D01*
X0137767Y0111450D02*
X0137767Y0115153D01*
X0136552Y0114536D02*
X0135935Y0115153D01*
X0138384Y0113302D02*
X0140236Y0111450D01*
X0137767Y0112684D02*
X0140236Y0115153D01*
X0132869Y0114536D02*
X0132252Y0115153D01*
X0131018Y0115153D01*
X0130401Y0114536D01*
X0130401Y0113919D01*
X0131018Y0113302D01*
X0132252Y0113302D01*
X0132869Y0112684D01*
X0132869Y0112067D01*
X0132252Y0111450D01*
X0131018Y0111450D01*
X0130401Y0112067D01*
X0130414Y0105153D02*
X0130414Y0101450D01*
X0131628Y0102067D02*
X0132245Y0101450D01*
X0133480Y0101450D01*
X0134097Y0102067D01*
X0134097Y0104536D01*
X0133480Y0105153D01*
X0132245Y0105153D01*
X0131628Y0104536D01*
X0131628Y0102067D01*
X0129180Y0103919D02*
X0130414Y0105153D01*
X0129180Y0103919D02*
X0127945Y0105153D01*
X0127945Y0101450D01*
X0135311Y0102067D02*
X0135929Y0101450D01*
X0137163Y0101450D01*
X0137780Y0102067D01*
X0137780Y0102684D01*
X0137163Y0103302D01*
X0135929Y0103302D01*
X0135311Y0103919D01*
X0135311Y0104536D01*
X0135929Y0105153D01*
X0137163Y0105153D01*
X0137780Y0104536D01*
X0138995Y0105153D02*
X0140229Y0105153D01*
X0139612Y0105153D02*
X0139612Y0101450D01*
X0138995Y0101450D02*
X0140229Y0101450D01*
X0139618Y0095153D02*
X0140236Y0094536D01*
X0140236Y0092067D01*
X0139618Y0091450D01*
X0138384Y0091450D01*
X0137767Y0092067D01*
X0137767Y0094536D01*
X0138384Y0095153D01*
X0139618Y0095153D01*
X0136552Y0094536D02*
X0135935Y0095153D01*
X0134701Y0095153D01*
X0134084Y0094536D01*
X0134084Y0093919D01*
X0134701Y0093302D01*
X0135935Y0093302D01*
X0136552Y0092684D01*
X0136552Y0092067D01*
X0135935Y0091450D01*
X0134701Y0091450D01*
X0134084Y0092067D01*
X0132863Y0091450D02*
X0131628Y0091450D01*
X0132245Y0091450D02*
X0132245Y0095153D01*
X0131628Y0095153D02*
X0132863Y0095153D01*
X0130414Y0095153D02*
X0129180Y0093919D01*
X0127945Y0095153D01*
X0127945Y0091450D01*
X0130414Y0091450D02*
X0130414Y0095153D01*
X0134084Y0085153D02*
X0134084Y0083302D01*
X0135318Y0083919D01*
X0135935Y0083919D01*
X0136552Y0083302D01*
X0136552Y0082067D01*
X0135935Y0081450D01*
X0134701Y0081450D01*
X0134084Y0082067D01*
X0132869Y0083302D02*
X0130401Y0083302D01*
X0129186Y0083919D02*
X0127335Y0083919D01*
X0126717Y0083302D01*
X0126717Y0082067D01*
X0127335Y0081450D01*
X0129186Y0081450D01*
X0125503Y0081450D02*
X0123651Y0081450D01*
X0123034Y0082067D01*
X0123034Y0083302D01*
X0123651Y0083919D01*
X0125503Y0083919D01*
X0121820Y0082684D02*
X0121820Y0085153D01*
X0121820Y0082684D02*
X0120586Y0081450D01*
X0119351Y0082684D01*
X0119351Y0085153D01*
X0134084Y0085153D02*
X0136552Y0085153D01*
X0137767Y0085153D02*
X0137767Y0082684D01*
X0139001Y0081450D01*
X0140236Y0082684D01*
X0140236Y0085153D01*
X0139618Y0075153D02*
X0137767Y0075153D01*
X0137767Y0071450D01*
X0139618Y0071450D01*
X0140236Y0072067D01*
X0140236Y0074536D01*
X0139618Y0075153D01*
X0136552Y0075153D02*
X0136552Y0071450D01*
X0134084Y0075153D01*
X0134084Y0071450D01*
X0132869Y0072067D02*
X0132869Y0073302D01*
X0131635Y0073302D01*
X0132869Y0074536D02*
X0132252Y0075153D01*
X0131018Y0075153D01*
X0130401Y0074536D01*
X0130401Y0072067D01*
X0131018Y0071450D01*
X0132252Y0071450D01*
X0132869Y0072067D01*
X0156447Y0074369D02*
X0157064Y0073752D01*
X0157681Y0073752D01*
X0158298Y0074369D01*
X0158298Y0075604D01*
X0158916Y0076221D01*
X0159533Y0076221D01*
X0160150Y0075604D01*
X0160150Y0074369D01*
X0159533Y0073752D01*
X0160150Y0072538D02*
X0157681Y0072538D01*
X0156447Y0074369D02*
X0156447Y0075604D01*
X0157064Y0076221D01*
X0156447Y0077435D02*
X0156447Y0079287D01*
X0157064Y0079904D01*
X0159533Y0079904D01*
X0160150Y0079287D01*
X0160150Y0077435D01*
X0156447Y0077435D01*
X0160150Y0072538D02*
X0160150Y0070686D01*
X0159533Y0070069D01*
X0157681Y0070069D01*
X0157064Y0084802D02*
X0156447Y0085419D01*
X0156447Y0086653D01*
X0157064Y0087270D01*
X0157681Y0088485D02*
X0156447Y0089719D01*
X0157681Y0090954D01*
X0160150Y0090954D01*
X0160150Y0092168D02*
X0156447Y0092168D01*
X0156447Y0094020D01*
X0157064Y0094637D01*
X0158298Y0094637D01*
X0158916Y0094020D01*
X0158916Y0092168D01*
X0158916Y0093402D02*
X0160150Y0094637D01*
X0160150Y0095851D02*
X0160150Y0097703D01*
X0159533Y0098320D01*
X0157064Y0098320D01*
X0156447Y0097703D01*
X0156447Y0095851D01*
X0160150Y0095851D01*
X0158298Y0090954D02*
X0158298Y0088485D01*
X0157681Y0088485D02*
X0160150Y0088485D01*
X0159533Y0087270D02*
X0160150Y0086653D01*
X0160150Y0085419D01*
X0159533Y0084802D01*
X0157064Y0084802D01*
X0157064Y0103217D02*
X0156447Y0103835D01*
X0156447Y0105069D01*
X0157064Y0105686D01*
X0156447Y0106901D02*
X0160150Y0106901D01*
X0160150Y0109369D01*
X0159533Y0110584D02*
X0160150Y0111201D01*
X0160150Y0112435D01*
X0159533Y0113052D01*
X0157064Y0113052D01*
X0156447Y0112435D01*
X0156447Y0111201D01*
X0157064Y0110584D01*
X0159533Y0110584D01*
X0156447Y0114267D02*
X0156447Y0116736D01*
X0156447Y0115501D02*
X0160150Y0115501D01*
X0159533Y0105686D02*
X0160150Y0105069D01*
X0160150Y0103835D01*
X0159533Y0103217D01*
X0158298Y0103835D02*
X0158298Y0105069D01*
X0158916Y0105686D01*
X0159533Y0105686D01*
X0158298Y0103835D02*
X0157681Y0103217D01*
X0157064Y0103217D01*
D16*
X0153100Y0154300D02*
X0153100Y0156800D01*
X0153100Y0159300D01*
X0150600Y0159300D02*
X0150600Y0156800D01*
X0150600Y0154300D01*
D17*
X0214852Y0173261D02*
X0215570Y0172544D01*
X0214852Y0173261D02*
X0214852Y0174696D01*
X0215570Y0175413D01*
X0216287Y0175413D01*
X0219156Y0172544D01*
X0219156Y0175413D01*
X0218856Y0200044D02*
X0218856Y0202913D01*
X0218856Y0201479D02*
X0214552Y0201479D01*
X0215987Y0200044D01*
D18*
X0278454Y0139280D02*
X0278454Y0133375D01*
X0278454Y0133374D02*
X0278527Y0133338D01*
X0278598Y0133297D01*
X0278668Y0133254D01*
X0278735Y0133207D01*
X0278800Y0133157D01*
X0278862Y0133104D01*
X0278922Y0133049D01*
X0278979Y0132990D01*
X0279034Y0132929D01*
X0279085Y0132865D01*
X0279134Y0132799D01*
X0279179Y0132731D01*
X0279221Y0132661D01*
X0279260Y0132589D01*
X0279296Y0132515D01*
X0279327Y0132440D01*
X0279356Y0132363D01*
X0279380Y0132285D01*
X0279401Y0132206D01*
X0279418Y0132126D01*
X0279432Y0132045D01*
X0279441Y0131964D01*
X0279447Y0131882D01*
X0279449Y0131800D01*
X0279447Y0131718D01*
X0279441Y0131636D01*
X0279432Y0131555D01*
X0279418Y0131474D01*
X0279401Y0131394D01*
X0279380Y0131315D01*
X0279356Y0131237D01*
X0279327Y0131160D01*
X0279296Y0131085D01*
X0279260Y0131011D01*
X0279221Y0130939D01*
X0279179Y0130869D01*
X0279134Y0130801D01*
X0279085Y0130735D01*
X0279034Y0130671D01*
X0278979Y0130610D01*
X0278922Y0130551D01*
X0278862Y0130496D01*
X0278800Y0130443D01*
X0278735Y0130393D01*
X0278668Y0130346D01*
X0278598Y0130303D01*
X0278527Y0130262D01*
X0278454Y0130226D01*
X0278454Y0130225D02*
X0278454Y0124320D01*
X0285146Y0124320D01*
X0285146Y0130225D01*
X0285146Y0130226D02*
X0285073Y0130262D01*
X0285002Y0130303D01*
X0284932Y0130346D01*
X0284865Y0130393D01*
X0284800Y0130443D01*
X0284738Y0130496D01*
X0284678Y0130551D01*
X0284621Y0130610D01*
X0284566Y0130671D01*
X0284515Y0130735D01*
X0284466Y0130801D01*
X0284421Y0130869D01*
X0284379Y0130939D01*
X0284340Y0131011D01*
X0284304Y0131085D01*
X0284273Y0131160D01*
X0284244Y0131237D01*
X0284220Y0131315D01*
X0284199Y0131394D01*
X0284182Y0131474D01*
X0284168Y0131555D01*
X0284159Y0131636D01*
X0284153Y0131718D01*
X0284151Y0131800D01*
X0284153Y0131882D01*
X0284159Y0131964D01*
X0284168Y0132045D01*
X0284182Y0132126D01*
X0284199Y0132206D01*
X0284220Y0132285D01*
X0284244Y0132363D01*
X0284273Y0132440D01*
X0284304Y0132515D01*
X0284340Y0132589D01*
X0284379Y0132661D01*
X0284421Y0132731D01*
X0284466Y0132799D01*
X0284515Y0132865D01*
X0284566Y0132929D01*
X0284621Y0132990D01*
X0284678Y0133049D01*
X0284738Y0133104D01*
X0284800Y0133157D01*
X0284865Y0133207D01*
X0284932Y0133254D01*
X0285002Y0133297D01*
X0285073Y0133338D01*
X0285146Y0133374D01*
X0285146Y0133375D02*
X0285146Y0139280D01*
X0278454Y0139280D01*
X0298454Y0139280D02*
X0298454Y0133375D01*
X0298454Y0133374D02*
X0298527Y0133338D01*
X0298598Y0133297D01*
X0298668Y0133254D01*
X0298735Y0133207D01*
X0298800Y0133157D01*
X0298862Y0133104D01*
X0298922Y0133049D01*
X0298979Y0132990D01*
X0299034Y0132929D01*
X0299085Y0132865D01*
X0299134Y0132799D01*
X0299179Y0132731D01*
X0299221Y0132661D01*
X0299260Y0132589D01*
X0299296Y0132515D01*
X0299327Y0132440D01*
X0299356Y0132363D01*
X0299380Y0132285D01*
X0299401Y0132206D01*
X0299418Y0132126D01*
X0299432Y0132045D01*
X0299441Y0131964D01*
X0299447Y0131882D01*
X0299449Y0131800D01*
X0299447Y0131718D01*
X0299441Y0131636D01*
X0299432Y0131555D01*
X0299418Y0131474D01*
X0299401Y0131394D01*
X0299380Y0131315D01*
X0299356Y0131237D01*
X0299327Y0131160D01*
X0299296Y0131085D01*
X0299260Y0131011D01*
X0299221Y0130939D01*
X0299179Y0130869D01*
X0299134Y0130801D01*
X0299085Y0130735D01*
X0299034Y0130671D01*
X0298979Y0130610D01*
X0298922Y0130551D01*
X0298862Y0130496D01*
X0298800Y0130443D01*
X0298735Y0130393D01*
X0298668Y0130346D01*
X0298598Y0130303D01*
X0298527Y0130262D01*
X0298454Y0130226D01*
X0298454Y0130225D02*
X0298454Y0124320D01*
X0305146Y0124320D01*
X0305146Y0130225D01*
X0305146Y0130226D02*
X0305073Y0130262D01*
X0305002Y0130303D01*
X0304932Y0130346D01*
X0304865Y0130393D01*
X0304800Y0130443D01*
X0304738Y0130496D01*
X0304678Y0130551D01*
X0304621Y0130610D01*
X0304566Y0130671D01*
X0304515Y0130735D01*
X0304466Y0130801D01*
X0304421Y0130869D01*
X0304379Y0130939D01*
X0304340Y0131011D01*
X0304304Y0131085D01*
X0304273Y0131160D01*
X0304244Y0131237D01*
X0304220Y0131315D01*
X0304199Y0131394D01*
X0304182Y0131474D01*
X0304168Y0131555D01*
X0304159Y0131636D01*
X0304153Y0131718D01*
X0304151Y0131800D01*
X0304153Y0131882D01*
X0304159Y0131964D01*
X0304168Y0132045D01*
X0304182Y0132126D01*
X0304199Y0132206D01*
X0304220Y0132285D01*
X0304244Y0132363D01*
X0304273Y0132440D01*
X0304304Y0132515D01*
X0304340Y0132589D01*
X0304379Y0132661D01*
X0304421Y0132731D01*
X0304466Y0132799D01*
X0304515Y0132865D01*
X0304566Y0132929D01*
X0304621Y0132990D01*
X0304678Y0133049D01*
X0304738Y0133104D01*
X0304800Y0133157D01*
X0304865Y0133207D01*
X0304932Y0133254D01*
X0305002Y0133297D01*
X0305073Y0133338D01*
X0305146Y0133374D01*
X0305146Y0133375D02*
X0305146Y0139280D01*
X0298454Y0139280D01*
D19*
X0299658Y0126061D02*
X0299658Y0124960D01*
X0299291Y0124960D02*
X0300025Y0124960D01*
X0299291Y0125694D02*
X0299658Y0126061D01*
X0280025Y0124960D02*
X0279291Y0124960D01*
X0279658Y0124960D02*
X0279658Y0126061D01*
X0279291Y0125694D01*
M02*
