G75*
%MOIN*%
%OFA0B0*%
%FSLAX25Y25*%
%IPPOS*%
%LPD*%
%AMOC8*
5,1,8,0,0,1.08239X$1,22.5*
%
%ADD10C,0.15598*%
%ADD11C,0.09150*%
%ADD12C,0.10000*%
%ADD13OC8,0.09300*%
%ADD14C,0.09300*%
%ADD15OC8,0.09200*%
%ADD16C,0.10000*%
%ADD17OC8,0.10600*%
%ADD18C,0.10990*%
%ADD19C,0.09937*%
%ADD20C,0.09543*%
%ADD21OC8,0.08362*%
%ADD22C,0.09000*%
D10*
X0009800Y0010800D03*
X0154800Y0015800D03*
X0009800Y0200800D03*
X0364800Y0200800D03*
D11*
X0366800Y0163087D02*
X0366800Y0156938D01*
X0356800Y0156938D02*
X0356800Y0163087D01*
X0346800Y0163087D02*
X0346800Y0156938D01*
X0336800Y0156938D02*
X0336800Y0163087D01*
X0326800Y0163087D02*
X0326800Y0156938D01*
X0316800Y0156938D02*
X0316800Y0163087D01*
X0306800Y0163087D02*
X0306800Y0156938D01*
X0296800Y0156938D02*
X0296800Y0163087D01*
X0286800Y0163087D02*
X0286800Y0156938D01*
X0276800Y0156938D02*
X0276800Y0163087D01*
X0266800Y0163087D02*
X0266800Y0156938D01*
X0256800Y0156938D02*
X0256800Y0163087D01*
X0246800Y0163087D02*
X0246800Y0156938D01*
X0236800Y0156938D02*
X0236800Y0163087D01*
X0226800Y0163087D02*
X0226800Y0156938D01*
X0216800Y0156938D02*
X0216800Y0163087D01*
X0206800Y0163087D02*
X0206800Y0156938D01*
X0196800Y0156938D02*
X0196800Y0163087D01*
X0186800Y0163087D02*
X0186800Y0156938D01*
X0253178Y0183725D02*
X0253178Y0189875D01*
X0261052Y0189875D02*
X0261052Y0183725D01*
X0268926Y0183725D02*
X0268926Y0189875D01*
X0276800Y0189875D02*
X0276800Y0183725D01*
X0276800Y0063914D02*
X0276800Y0057765D01*
X0266800Y0057765D02*
X0266800Y0063914D01*
X0256800Y0063914D02*
X0256800Y0057765D01*
X0246800Y0057765D02*
X0246800Y0063914D01*
X0236800Y0063914D02*
X0236800Y0057765D01*
X0226800Y0057765D02*
X0226800Y0063914D01*
X0216800Y0063914D02*
X0216800Y0057765D01*
X0206800Y0057765D02*
X0206800Y0063914D01*
X0196800Y0063914D02*
X0196800Y0057765D01*
X0186800Y0057686D02*
X0186800Y0063835D01*
X0141800Y0029875D02*
X0141800Y0023725D01*
X0133926Y0023725D02*
X0133926Y0029875D01*
X0126052Y0029875D02*
X0126052Y0023725D01*
X0118178Y0023725D02*
X0118178Y0029875D01*
X0091800Y0029875D02*
X0091800Y0023725D01*
X0083926Y0023725D02*
X0083926Y0029875D01*
X0076052Y0029875D02*
X0076052Y0023725D01*
X0068178Y0023725D02*
X0068178Y0029875D01*
X0046800Y0029875D02*
X0046800Y0023725D01*
X0038926Y0023725D02*
X0038926Y0029875D01*
X0031052Y0029875D02*
X0031052Y0023725D01*
X0023178Y0023725D02*
X0023178Y0029875D01*
X0238178Y0029875D02*
X0238178Y0023725D01*
X0246052Y0023725D02*
X0246052Y0029875D01*
X0253926Y0029875D02*
X0253926Y0023725D01*
X0261800Y0023725D02*
X0261800Y0029875D01*
X0286800Y0057765D02*
X0286800Y0063914D01*
X0296800Y0063914D02*
X0296800Y0057765D01*
X0306800Y0057765D02*
X0306800Y0063914D01*
X0316800Y0063914D02*
X0316800Y0057765D01*
X0326800Y0057765D02*
X0326800Y0063914D01*
X0336800Y0063914D02*
X0336800Y0057765D01*
X0346800Y0057765D02*
X0346800Y0063914D01*
X0356800Y0063914D02*
X0356800Y0057765D01*
X0366800Y0057765D02*
X0366800Y0063914D01*
D12*
X0148800Y0072800D03*
X0148800Y0082800D03*
X0148800Y0092800D03*
X0148800Y0102800D03*
X0148800Y0112800D03*
X0148800Y0122800D03*
D13*
X0146800Y0176800D03*
D14*
X0146800Y0186800D03*
D15*
X0141800Y0156800D03*
X0161800Y0156800D03*
D16*
X0213300Y0181800D02*
X0220300Y0181800D01*
X0220300Y0191800D02*
X0213300Y0191800D01*
X0211800Y0030300D02*
X0211800Y0023300D01*
X0201800Y0023300D02*
X0201800Y0030300D01*
X0191800Y0030300D02*
X0191800Y0023300D01*
X0181800Y0023300D02*
X0181800Y0030300D01*
X0171800Y0030300D02*
X0171800Y0023300D01*
X0296800Y0023300D02*
X0296800Y0030300D01*
X0306800Y0030300D02*
X0306800Y0023300D01*
X0316800Y0023300D02*
X0316800Y0030300D01*
X0326800Y0030300D02*
X0326800Y0023300D01*
X0336800Y0023300D02*
X0336800Y0030300D01*
X0346800Y0030300D02*
X0346800Y0023300D01*
X0356800Y0023300D02*
X0356800Y0030300D01*
X0366800Y0030300D02*
X0366800Y0023300D01*
D17*
X0121800Y0151800D03*
X0121800Y0161800D03*
X0121800Y0191800D03*
X0121800Y0201800D03*
X0051800Y0201800D03*
X0051800Y0191800D03*
X0051800Y0161800D03*
X0051800Y0151800D03*
D18*
X0025795Y0156957D02*
X0017805Y0156957D01*
X0017805Y0176643D02*
X0025795Y0176643D01*
D19*
X0178331Y0181800D02*
X0185269Y0181800D01*
X0185269Y0191800D02*
X0178331Y0191800D01*
D20*
X0281800Y0135737D03*
X0281800Y0127863D03*
X0301800Y0127863D03*
X0301800Y0135737D03*
D21*
X0196800Y0111800D03*
X0176800Y0151800D03*
X0176800Y0171800D03*
D22*
X0178965Y0143532D03*
X0243926Y0143532D03*
X0194713Y0049044D03*
X0159280Y0035265D03*
M02*
