%
M48
M72
T01C0.02362
T02C0.03000
T03C0.03150
T04C0.03200
T05C0.03543
T06C0.03937
T07C0.04000
T08C0.04700
T09C0.12598
%
T01
X196800Y111800
X176800Y151800
X176800Y171800
T02
X178965Y143532
X243926Y143532
X194713Y49044
X159280Y35265
T03
X141800Y26800
X133926Y26800
X126052Y26800
X118178Y26800
X91800Y26800
X83926Y26800
X76052Y26800
X68178Y26800
X46800Y26800
X38926Y26800
X31052Y26800
X23178Y26800
X148800Y72800
X148800Y82800
X148800Y92800
X148800Y102800
X148800Y112800
X148800Y122800
X186800Y160013
X196800Y160013
X206800Y160013
X216800Y160013
X226800Y160013
X236800Y160013
X246800Y160013
X256800Y160013
X266800Y160013
X276800Y160013
X286800Y160013
X296800Y160013
X306800Y160013
X316800Y160013
X326800Y160013
X336800Y160013
X346800Y160013
X356800Y160013
X366800Y160013
X276800Y186800
X268926Y186800
X261052Y186800
X253178Y186800
X256800Y60839
X246800Y60839
X236800Y60839
X226800Y60839
X216800Y60839
X206800Y60839
X196800Y60839
X186800Y60761
X238178Y26800
X246052Y26800
X253926Y26800
X261800Y26800
X266800Y60839
X276800Y60839
X286800Y60839
X296800Y60839
X306800Y60839
X316800Y60839
X326800Y60839
X336800Y60839
X346800Y60839
X356800Y60839
X366800Y60839
T04
X161800Y156800
X141800Y156800
X146800Y176800
X146800Y186800
T05
X281800Y135737
X281800Y127863
X301800Y127863
X301800Y135737
T06
X181800Y181800
X181800Y191800
X121800Y191800
X121800Y201800
X51800Y201800
X51800Y191800
X51800Y161800
X51800Y151800
X121800Y151800
X121800Y161800
T07
X216800Y181800
X216800Y191800
X211800Y26800
X201800Y26800
X191800Y26800
X181800Y26800
X171800Y26800
X296800Y26800
X306800Y26800
X316800Y26800
X326800Y26800
X336800Y26800
X346800Y26800
X356800Y26800
X366800Y26800
T08
X21800Y156957
X21800Y176643
T09
X9800Y10800
X154800Y15800
X9800Y200800
X364800Y200800
M30
